<?xml version="1.0" standalone="no"?>
<!DOCTYPE svg PUBLIC "-//W3C//DTD SVG 20010904//EN"
 "http://www.w3.org/TR/2001/REC-SVG-20010904/DTD/svg10.dtd">
<svg version="1.0" xmlns="http://www.w3.org/2000/svg"
 width="1536.000000pt" height="1536.000000pt" viewBox="0 0 1536.000000 1536.000000"
 preserveAspectRatio="xMidYMid meet">

<g transform="translate(0.000000,1536.000000) scale(0.100000,-0.100000)"
fill="#000000" stroke="none">
<path d="M0 7680 l0 -7680 7680 0 7680 0 0 7680 0 7680 -7680 0 -7680 0 0
-7680z m8277 7210 c-47 -20 -185 -128 -256 -201 -14 -15 -52 -39 -84 -54 -53
-25 -121 -81 -262 -219 -68 -66 -130 -116 -144 -116 -6 0 -12 -10 -12 -22 -1
-18 -3 -16 -8 7 -3 17 -13 30 -21 30 -120 -2 -398 -32 -415 -44 -5 -4 -41 -18
-80 -31 -67 -21 -254 -95 -324 -127 -18 -8 -44 -13 -58 -10 -13 2 -102 0 -197
-5 -212 -11 -362 6 -486 55 -62 24 -204 55 -297 65 -24 2 -43 8 -43 13 0 18
81 22 210 9 74 -7 180 -16 235 -20 106 -8 266 -33 325 -50 19 -5 51 -10 70
-10 19 0 55 -9 79 -20 24 -11 52 -20 63 -20 20 0 73 20 118 45 64 36 147 76
174 84 17 6 50 17 73 25 128 47 374 96 506 100 107 4 102 1 211 100 43 38 98
85 124 105 26 19 52 40 57 47 6 6 54 45 108 85 54 41 124 94 155 118 31 24 82
56 112 71 50 25 56 26 67 11 9 -12 9 -17 0 -21z m128 -185 c8 -16 17 -46 20
-65 4 -19 18 -69 32 -110 22 -67 45 -168 87 -370 16 -80 30 -111 77 -175 56
-77 211 -338 230 -387 6 -16 15 -28 20 -28 5 0 9 -6 9 -12 0 -14 5 -25 65
-133 56 -102 155 -306 155 -320 0 -2 14 -24 30 -48 17 -25 30 -48 30 -52 0 -3
6 -12 13 -19 61 -63 127 -141 162 -190 11 -16 34 -44 50 -63 17 -18 49 -55 72
-81 23 -26 62 -70 87 -98 25 -27 67 -84 94 -125 28 -41 57 -83 66 -94 49 -62
107 -147 134 -196 125 -232 131 -239 244 -328 168 -132 240 -180 403 -271 33
-18 76 -42 95 -53 76 -42 230 -189 329 -312 106 -133 104 -132 179 -138 92 -9
212 -31 307 -57 44 -12 99 -26 123 -31 23 -5 50 -12 60 -17 9 -5 46 -17 82
-26 115 -31 290 -100 298 -118 2 -5 9 -8 16 -8 10 0 86 -52 186 -128 38 -28
161 -150 197 -194 12 -15 41 -65 64 -112 23 -47 45 -86 50 -86 30 0 22 371
-10 471 -41 130 -152 253 -320 356 -122 75 -149 103 -101 103 26 0 168 -75
244 -129 217 -153 304 -363 266 -634 -9 -64 -21 -101 -51 -159 -16 -31 -9 -62
22 -108 24 -36 29 -51 24 -80 -3 -19 -1 -61 4 -93 16 -91 -2 -199 -41 -264
-80 -132 -147 -157 -81 -30 26 49 27 60 28 182 0 137 -1 140 -59 240 -13 22
-34 60 -48 85 -80 149 -190 285 -297 368 -31 24 -57 48 -59 53 -2 5 -10 9 -17
9 -8 0 -18 6 -22 14 -4 8 -46 31 -93 51 -47 21 -92 43 -100 50 -8 7 -44 18
-80 25 -36 6 -81 19 -100 27 -34 14 -57 19 -255 64 -49 11 -142 24 -205 29
-63 5 -144 12 -180 16 l-64 7 29 -27 c54 -48 148 -119 295 -223 222 -157 261
-183 365 -248 123 -76 211 -142 310 -230 152 -136 202 -191 279 -310 43 -66
86 -131 96 -145 23 -34 134 -263 156 -325 26 -71 26 -299 1 -410 -18 -78 -69
-195 -107 -245 -16 -21 -20 -23 -25 -8 -4 9 1 34 10 55 9 21 23 53 31 71 20
45 19 250 -2 339 -35 156 -77 253 -109 253 -15 0 -20 -14 -30 -91 -10 -79 -91
-179 -144 -179 -24 0 -21 10 32 120 29 61 31 72 30 170 -1 102 -13 166 -49
247 -8 17 -14 33 -14 36 0 3 -17 34 -37 69 -45 74 -252 286 -333 340 -30 20
-66 45 -79 57 -13 11 -33 23 -45 27 -11 4 -24 12 -28 18 -5 6 -8 2 -8 -10 0
-12 16 -52 36 -89 71 -134 77 -161 76 -346 -1 -142 -4 -176 -23 -230 -27 -82
-73 -173 -99 -199 -20 -20 -20 -20 -20 0 0 11 4 28 10 38 23 42 40 137 40 223
0 78 -5 107 -31 183 -17 49 -39 103 -49 120 -108 194 -137 237 -225 336 -75
86 -185 190 -200 190 -8 0 -15 5 -15 10 0 6 -5 10 -11 10 -7 0 -37 20 -67 45
-30 25 -60 45 -67 45 -7 0 -15 3 -17 8 -2 4 -21 16 -42 27 -22 11 -53 34 -70
51 -17 18 -46 34 -63 38 -28 5 -33 3 -33 -15 0 -25 9 -43 75 -144 65 -100 125
-226 125 -265 0 -16 5 -41 11 -57 12 -32 19 -163 11 -208 -5 -25 -6 -27 -13
-10 -4 11 -8 38 -8 61 -1 43 -32 191 -50 239 -26 68 -85 174 -93 168 -11 -6
-6 -41 11 -88 6 -16 22 -79 36 -140 27 -117 35 -288 14 -300 -6 -4 -14 -16
-18 -27 -5 -14 -11 7 -20 68 -23 158 -67 290 -153 459 -64 124 -209 313 -284
370 -121 93 -737 743 -762 805 -3 8 -32 52 -64 97 -32 45 -58 87 -58 93 0 6
-12 33 -26 61 -43 87 -67 176 -55 211 8 23 7 36 -4 58 -8 16 -15 37 -15 47 0
10 -7 27 -15 37 -8 11 -15 28 -15 38 0 10 -4 26 -9 36 -12 21 -48 102 -55 122
-16 47 15 -382 33 -450 27 -102 43 -157 52 -175 12 -26 69 -206 69 -217 0 -8
18 -53 57 -138 31 -69 75 -153 84 -160 3 -3 9 -18 13 -34 4 -15 12 -34 19 -41
71 -73 114 -152 145 -265 89 -322 91 -645 6 -1079 -8 -40 -14 -87 -14 -104 0
-17 -6 -58 -14 -91 -8 -34 -17 -78 -21 -98 -7 -48 -31 -55 -90 -28 -100 45
-293 37 -470 -20 -84 -27 -125 -46 -248 -114 -78 -42 -81 -40 -73 57 4 45 11
138 16 207 17 233 50 418 100 554 13 36 19 69 15 84 -7 30 -14 23 -44 -48 -13
-30 -34 -76 -47 -101 -13 -26 -24 -54 -24 -62 0 -9 -9 -22 -21 -30 -18 -13
-21 -27 -25 -124 -2 -59 -8 -124 -13 -143 -50 -194 -56 -210 -93 -210 -14 0
-18 8 -18 38 0 20 -5 64 -10 97 -57 331 -74 622 -47 805 9 58 18 131 21 162 8
80 55 257 83 313 47 93 152 176 343 269 100 49 109 51 185 50 86 0 152 -18
247 -65 41 -21 59 -25 64 -17 4 7 2 14 -4 16 -7 2 -12 10 -12 17 0 7 -6 15
-13 18 -6 2 -28 35 -47 73 -19 38 -50 91 -68 119 -18 27 -39 70 -48 95 -17 46
-19 53 -52 130 -24 57 -46 119 -67 195 -9 33 -23 78 -30 100 -7 22 -18 58 -25
79 -13 42 -27 104 -65 296 -38 195 -55 272 -66 315 -5 22 -14 56 -18 75 -5 19
-16 49 -25 65 -9 17 -16 48 -16 70 -1 51 -42 217 -60 240 -4 6 -11 24 -14 40
-4 17 -15 36 -24 42 -16 10 -18 4 -20 -61 -6 -175 -9 -212 -19 -231 -10 -17
-12 -15 -18 20 -3 22 -10 49 -15 60 -24 54 -54 254 -65 430 -6 98 -23 179 -50
240 -7 17 -24 55 -38 85 -50 112 -97 266 -97 319 0 29 -15 114 -34 189 -19 76
-42 173 -51 217 -9 44 -24 110 -32 146 -10 38 -13 73 -9 85 7 15 9 16 13 4 3
-8 11 -28 18 -45z m-133 -259 c-3 -26 2 -38 23 -54 23 -18 26 -26 20 -54 -4
-18 -13 -43 -21 -55 -13 -21 -12 -22 28 -30 52 -10 57 -25 21 -60 -15 -15 -35
-38 -44 -51 -16 -24 -16 -25 17 -54 56 -49 55 -67 -11 -187 -12 -21 -11 -30 0
-58 13 -30 12 -35 -1 -40 -42 -16 -144 56 -130 92 8 23 -83 95 -121 95 -25 0
-32 5 -35 22 -2 18 -12 24 -45 31 -34 6 -43 12 -43 29 0 51 25 98 92 169 38
41 78 93 89 117 11 24 27 46 35 49 8 3 14 10 14 17 0 12 101 67 110 59 2 -2 3
-19 2 -37z m-845 -256 c47 -11 161 -68 170 -84 4 -7 15 -16 23 -19 45 -17 -65
-3 -115 15 -54 19 -227 40 -312 39 l-33 -1 21 21 c30 30 145 59 184 47 17 -6
45 -13 62 -18z m-1830 -87 c-3 -10 -5 -4 -5 12 0 17 2 24 5 18 2 -7 2 -21 0
-30z m30 -105 c-2 -13 -4 -3 -4 22 0 25 2 35 4 23 2 -13 2 -33 0 -45z m52 -90
c13 -35 27 -72 32 -83 4 -11 18 -45 30 -75 12 -30 28 -62 34 -70 7 -8 34 -55
60 -105 26 -49 64 -115 84 -145 96 -141 134 -236 94 -228 -15 3 -47 43 -115
147 -47 71 -177 343 -212 445 -12 34 -25 66 -29 73 -12 19 -21 103 -11 103 5
0 20 -28 33 -62z m843 -25 c-57 -87 -63 -95 -113 -170 -26 -37 -52 -86 -59
-108 -7 -22 -21 -59 -31 -83 -11 -23 -19 -49 -19 -56 0 -8 -3 -16 -7 -18 -12
-5 -69 -117 -94 -183 -12 -33 -25 -64 -29 -70 -4 -5 -14 -41 -24 -80 -9 -38
-23 -99 -32 -135 -9 -36 -20 -83 -24 -105 -4 -22 -14 -65 -23 -95 -9 -30 -20
-100 -26 -155 -5 -55 -14 -111 -19 -125 -16 -41 -25 82 -19 265 5 161 18 273
37 310 5 11 21 54 35 96 13 42 34 99 46 125 32 75 49 127 48 149 0 17 -1 17
-7 3 -4 -9 -19 -26 -33 -37 -29 -23 -28 -23 -75 45 -20 27 -20 32 -7 58 21 41
11 54 -43 58 -46 3 -48 4 -62 46 -7 23 -17 42 -22 42 -21 0 6 42 36 55 19 8
34 19 34 24 0 18 54 61 76 61 30 0 154 -56 181 -82 27 -26 22 -71 -14 -109
-18 -19 -23 -35 -21 -62 2 -41 13 -48 24 -15 3 12 10 26 15 32 5 6 34 49 64
96 71 110 74 115 113 168 45 60 125 137 130 124 2 -6 -14 -37 -36 -69z m1284
-123 c26 -21 52 -46 56 -55 9 -15 6 -17 -40 -31 -7 -2 -18 -18 -24 -34 -10
-30 -11 -31 -30 -13 -33 29 -48 69 -48 123 0 42 3 50 19 50 10 0 40 -18 67
-40z m1244 -104 c0 -12 14 -15 63 -15 38 0 74 -6 92 -15 17 -9 49 -16 71 -16
23 0 55 -7 70 -15 16 -8 43 -15 59 -15 17 0 37 -5 45 -10 13 -8 13 -10 -2 -10
-9 0 -20 -5 -23 -11 -5 -6 10 -10 42 -9 56 1 147 -16 185 -36 14 -8 34 -14 43
-14 9 0 23 -7 31 -15 9 -8 26 -15 38 -15 13 0 29 -7 36 -15 7 -8 21 -15 32
-15 10 0 21 -7 24 -15 4 -8 15 -15 26 -15 11 0 26 -7 34 -15 9 -8 26 -15 40
-15 14 0 27 -6 30 -13 2 -7 14 -13 25 -14 12 -1 29 -9 38 -17 10 -9 27 -16 39
-16 11 0 23 -4 27 -9 3 -6 29 -22 58 -36 72 -36 99 -52 106 -62 9 -12 70 -43
86 -43 7 0 15 -6 18 -14 3 -8 16 -16 28 -18 22 -3 22 -4 5 -20 -10 -10 -14
-18 -10 -18 3 0 1 -7 -6 -15 -7 -8 -23 -15 -36 -15 -20 0 -22 4 -17 34 5 32 3
34 -27 41 -17 4 -34 4 -37 1 -4 -3 3 -6 15 -6 11 0 24 -5 28 -12 4 -6 3 -8 -4
-4 -6 3 -13 2 -17 -4 -3 -5 -13 -10 -21 -10 -8 0 -13 4 -10 9 3 5 -1 12 -10
15 -8 3 -13 10 -9 15 3 5 1 12 -5 16 -6 4 -10 -5 -10 -20 0 -15 4 -24 10 -20
6 3 10 -2 10 -11 0 -13 -3 -15 -11 -7 -8 8 -19 7 -40 -1 -25 -9 -36 -8 -60 7
-17 9 -39 17 -50 17 -10 0 -19 5 -19 10 0 6 -12 10 -27 10 -16 1 -38 6 -50 13
-26 14 -78 110 -63 115 6 2 10 8 10 13 0 6 -4 8 -10 4 -5 -3 -18 0 -29 7 -14
9 -17 16 -10 25 16 19 0 35 -32 31 -21 -3 -26 -1 -19 8 7 8 6 13 -5 18 -9 3
-13 2 -10 -4 9 -15 -33 -11 -90 8 -42 14 -50 20 -47 40 2 16 -2 22 -17 22 -10
0 -28 3 -38 6 -15 5 -16 4 -3 -6 12 -9 8 -10 -20 -7 -19 3 -46 9 -60 14 -14 6
-51 11 -84 12 -35 1 -64 8 -73 17 -16 15 -16 15 -89 19 -53 2 -194 43 -194 56
0 5 26 9 58 11 88 5 64 23 -28 21 -77 -2 -80 -1 -86 23 -6 23 -22 30 -68 25
-21 -1 -47 -31 -40 -43 3 -5 -4 -8 -15 -8 -14 0 -21 6 -21 19 0 11 -4 23 -10
26 -5 3 -10 14 -10 24 0 14 11 17 75 19 61 2 75 0 75 -12z m-1463 -90 c-2 -21
-60 -46 -89 -38 -30 8 -22 48 15 69 29 18 34 18 54 4 13 -9 22 -25 20 -35z
m-182 -72 c17 -21 44 -54 60 -74 127 -146 208 -261 199 -283 -3 -9 -34 -30
-68 -46 -34 -16 -77 -42 -95 -57 -29 -24 -77 -53 -159 -96 -40 -20 -43 -3 -32
158 5 82 10 217 10 301 0 83 3 159 6 167 7 18 20 6 79 -70z m-370 -55 c10 -31
2 -31 -35 -4 l-34 25 31 0 c23 0 33 -6 38 -21z m-1179 -99 c13 -15 2 -52 -11
-38 -4 4 -17 3 -30 -2 -14 -5 -26 -5 -33 2 -13 13 -45 -14 -34 -28 4 -5 -1 -2
-10 5 -19 15 -15 31 8 31 8 0 14 4 14 9 0 4 11 6 25 3 25 -4 35 11 15 23 -5 3
-10 10 -10 15 0 12 44 17 49 5 2 -5 10 -17 17 -25z m-132 -20 c-21 -22 -114
-37 -114 -19 0 5 16 9 36 9 26 0 35 4 31 13 -3 9 6 14 32 15 l36 3 -21 -21z
m-330 -188 c33 7 33 3 -1 -26 -15 -13 -34 -21 -44 -19 -22 6 -33 43 -13 43 8
0 14 6 14 13 0 8 3 8 9 -2 5 -8 19 -12 35 -9z m5076 -47 c0 -8 5 -15 10 -15 6
0 10 -7 10 -15 0 -10 10 -15 26 -15 25 0 26 -2 19 -32 -4 -18 -7 -43 -6 -55 1
-30 -10 -29 -48 3 -17 14 -35 23 -41 19 -11 -7 -26 22 -16 32 3 3 12 0 20 -6
10 -8 16 -9 21 -1 3 5 1 10 -6 10 -7 0 -5 8 6 20 18 19 17 20 -3 20 -17 0 -22
6 -22 25 0 16 6 25 15 25 8 0 15 -7 15 -15z m-4472 -32 c2 -13 -10 -49 -27
-80 -16 -32 -32 -71 -36 -88 -7 -36 -62 -77 -102 -77 -20 0 -39 13 -75 53 -26
30 -48 57 -48 62 0 12 48 50 108 84 135 78 174 87 180 46z m1732 6 c0 -5 -4
-9 -9 -9 -5 0 -11 -9 -14 -19 -3 -13 -20 -24 -48 -32 -24 -7 -57 -23 -74 -35
-16 -12 -46 -29 -65 -38 -48 -23 -130 -100 -130 -123 0 -12 15 -25 43 -38 35
-17 44 -27 52 -60 19 -75 37 -78 91 -16 27 31 33 34 48 22 9 -7 16 -19 16 -27
0 -21 73 -92 102 -99 15 -4 50 0 81 9 41 12 56 22 66 43 26 58 93 133 117 133
13 0 24 -1 24 -2 0 -2 7 -41 15 -88 17 -97 19 -186 5 -315 -7 -70 -16 -105
-42 -155 -18 -36 -37 -68 -43 -72 -16 -12 4 -9 28 4 12 6 38 24 58 40 26 21
45 29 65 26 27 -3 28 -4 26 -58 -4 -76 -18 -114 -68 -190 -67 -101 -194 -241
-294 -324 -19 -16 -57 -48 -85 -71 -27 -23 -67 -49 -88 -59 -38 -17 -40 -17
-90 4 -105 45 -185 86 -295 152 -62 38 -115 68 -118 68 -13 0 -97 64 -141 108
-70 68 -172 259 -173 323 0 9 -7 22 -15 29 -8 7 -15 25 -15 40 0 15 -8 38 -18
51 -24 30 -34 82 -23 112 10 27 48 33 55 9 3 -9 22 -35 42 -57 19 -22 42 -55
49 -72 13 -31 17 -33 62 -33 57 0 84 16 118 71 30 46 34 102 12 146 -10 18
-17 39 -17 47 0 8 -6 16 -12 19 -7 2 -2 2 12 0 14 -2 37 -13 52 -23 15 -11 35
-20 44 -20 18 0 17 3 -11 80 -14 37 -16 64 -10 155 4 61 14 148 24 193 15 79
17 83 33 65 9 -10 21 -49 26 -88 15 -104 32 -158 56 -179 20 -18 21 -18 27 5
4 13 7 38 8 55 1 25 14 44 70 95 69 64 83 75 113 94 9 6 31 22 50 37 69 56
208 100 208 67z m844 -67 c39 -35 60 -102 59 -194 0 -84 -8 -114 -49 -190 -7
-14 -14 -33 -14 -42 0 -21 -16 -21 -24 1 -6 14 -11 12 -36 -12 -17 -16 -30
-36 -30 -46 0 -9 -9 -19 -20 -22 -17 -4 -20 0 -20 24 0 16 3 29 8 29 4 0 13
10 21 22 12 19 11 24 -8 39 -20 17 -21 21 -10 59 12 39 11 42 -14 66 -32 29
-34 44 -8 44 26 0 43 24 39 57 -2 18 5 36 20 52 22 24 22 24 41 4 10 -11 22
-29 25 -41 9 -28 33 -28 41 -1 5 13 0 26 -12 37 -10 9 -24 29 -32 45 -16 29
-31 33 -80 16 -21 -7 -33 -20 -37 -37 -9 -38 -13 -42 -29 -35 -31 11 -4 97 42
133 22 17 36 21 68 15 22 -3 48 -14 59 -23z m2051 -22 c-3 -5 -13 -10 -21 -10
-8 0 -14 5 -14 10 0 6 9 10 21 10 11 0 17 -4 14 -10z m35 -30 c0 -6 10 -15 23
-20 20 -8 18 -9 -13 -10 -51 -3 -84 1 -94 10 -4 4 10 7 33 7 29 -2 40 2 36 11
-2 6 0 12 5 12 6 0 10 -5 10 -10z m70 -60 c0 -5 -2 -10 -4 -10 -3 0 -8 5 -11
10 -3 6 -1 10 4 10 6 0 11 -4 11 -10z m-5046 -16 c27 -11 18 -40 -22 -66 -20
-14 -78 -47 -127 -73 -50 -26 -110 -62 -135 -80 -25 -18 -56 -36 -70 -40 -14
-4 -36 -14 -49 -22 -13 -8 -36 -19 -52 -23 -23 -7 -31 -5 -39 10 -9 16 1 25
76 69 47 28 87 51 89 51 2 0 44 27 94 60 99 66 190 117 208 119 6 1 18 -2 27
-5z m1058 -101 c3 -23 0 -33 -8 -33 -19 0 -34 33 -34 76 l0 37 19 -24 c10 -13
20 -39 23 -56z m3658 32 c7 -8 18 -15 25 -15 7 0 20 -11 29 -25 16 -25 16 -27
-15 -68 -58 -75 -84 -84 -130 -43 -35 30 -49 58 -49 95 0 23 5 31 18 31 11 0
27 9 37 20 21 24 67 26 85 5z m-2503 -11 c6 -16 -15 -37 -29 -28 -4 3 -8 14
-8 25 0 23 28 26 37 3z m3729 -41 c58 -63 68 -97 61 -200 -7 -93 0 -101 50
-59 57 48 169 76 246 62 32 -6 35 -10 42 -51 5 -36 12 -48 36 -60 34 -18 36
-37 8 -90 -40 -76 -98 -121 -214 -165 l-26 -10 69 -68 c72 -73 102 -122 102
-168 0 -69 -102 -171 -182 -182 -79 -10 -159 41 -222 141 l-30 46 -27 -70
c-31 -80 -68 -133 -113 -160 -43 -26 -65 -24 -114 12 -22 16 -58 33 -79 36
-48 7 -68 25 -89 78 -15 41 -15 47 1 97 22 65 53 114 95 150 l32 28 -27 10
c-14 5 -28 10 -30 10 -17 0 -114 53 -131 72 -56 61 -95 167 -69 188 8 7 18 34
21 61 5 39 13 54 36 71 44 31 126 21 219 -26 87 -44 102 -46 92 -8 -5 15 -8
63 -8 107 0 98 21 135 99 171 77 36 100 32 152 -23z m-1660 15 c22 -8 37 -22
44 -41 14 -42 14 -42 -27 -82 -44 -43 -71 -44 -112 -6 -48 45 -39 94 24 129
26 15 32 14 71 0z m-2135 -78 c30 -17 7 -50 -34 -50 -44 0 -59 11 -44 31 21
27 49 34 78 19z m-965 -36 c42 -27 68 -59 60 -73 -3 -4 -34 -3 -70 4 -50 10
-72 20 -96 44 l-32 31 24 9 c40 16 73 12 114 -15z m-2464 -114 c45 0 58 -3 58
-15 0 -9 -9 -15 -22 -16 l-23 0 23 -9 c31 -13 28 -24 -13 -39 -38 -13 -75 -2
-75 24 0 14 -11 19 -37 16 -7 -1 -13 5 -13 14 0 8 -4 15 -10 15 -5 0 -10 6
-10 14 0 12 7 13 32 5 18 -5 59 -9 90 -9z m2598 -6 c0 -2 -9 -4 -21 -4 -11 0
-18 4 -14 10 5 8 35 3 35 -6z m-1896 -47 c-20 -15 -28 -17 -39 -7 -23 19 -18
29 18 38 42 11 53 -5 21 -31z m3416 -22 c0 -13 -3 -31 -6 -40 -6 -14 -8 -14
-19 2 -17 24 -8 74 11 66 8 -3 14 -16 14 -28z m-5055 6 c114 -53 239 -246 191
-294 -23 -23 -116 -31 -178 -17 -84 20 -135 48 -187 105 -62 69 -68 90 -30
105 25 11 29 18 29 50 0 22 7 46 16 54 22 22 109 20 159 -3z m4986 -48 c-9
-16 -10 -14 -11 12 0 21 3 26 11 18 8 -8 8 -16 0 -30z m-3493 -22 c-13 -21
-45 -34 -61 -24 -13 8 33 42 56 43 14 0 15 -3 5 -19z m3582 -17 c0 -8 -5 -12
-10 -9 -6 4 -8 11 -5 16 9 14 15 11 15 -7z m-2311 -155 c26 -55 31 -78 31
-138 0 -67 -1 -70 -18 -60 -11 7 -33 38 -50 69 -32 58 -39 95 -34 194 l2 49
19 -24 c10 -14 33 -54 50 -90z m-1324 63 c142 -55 243 -194 252 -347 l4 -70
-63 -70 c-123 -136 -344 -353 -442 -434 -54 -45 -104 -87 -111 -94 -8 -7 -39
-30 -70 -51 -47 -34 -53 -41 -39 -49 18 -10 119 17 130 35 8 12 94 48 116 48
29 0 84 -60 97 -105 35 -126 -20 -377 -107 -492 -20 -26 -41 -50 -47 -52 -5
-2 -31 -27 -56 -54 -56 -61 -73 -62 -223 -13 -60 20 -119 36 -132 36 -12 0
-26 5 -29 10 -3 6 -15 10 -27 10 -11 0 -34 6 -51 14 -18 8 -63 24 -102 36 -38
12 -85 29 -102 37 -18 7 -50 20 -72 28 -21 7 -57 25 -80 39 -22 14 -44 26 -47
26 -4 0 -57 30 -118 67 -195 117 -258 199 -260 343 -1 54 4 73 27 113 43 73
188 214 327 317 69 51 150 114 180 140 30 26 71 58 91 71 195 131 273 181 324
209 69 37 124 71 245 149 96 62 183 110 220 122 32 10 114 1 165 -19z m3665
-133 c0 -36 -3 -42 -30 -52 -16 -6 -30 -15 -30 -19 0 -4 -4 -8 -10 -8 -22 0
-8 30 20 45 20 10 33 26 37 45 8 42 13 37 13 -11z m-2470 -133 c0 -69 -27
-175 -47 -183 -16 -6 -18 -94 -2 -110 9 -9 8 -16 -5 -28 -16 -17 -21 -46 -10
-58 8 -8 48 19 50 33 1 6 2 15 3 21 0 5 5 8 10 4 16 -9 25 17 22 66 -2 43 0
47 23 51 22 4 26 2 26 -19 0 -13 -5 -34 -12 -46 -6 -12 -12 -37 -14 -56 -1
-19 -7 -37 -12 -40 -6 -3 -19 -29 -31 -57 -31 -79 -88 -162 -160 -235 -55 -54
-74 -67 -116 -76 -27 -6 -60 -14 -72 -18 -32 -10 -30 11 3 38 108 90 135 121
149 167 6 20 5 23 -6 13 -7 -7 -22 -13 -33 -12 -17 0 -14 4 10 14 29 13 49 48
38 67 -10 16 -27 7 -70 -38 -40 -42 -44 -43 -44 -22 0 14 11 48 25 76 14 29
25 58 25 66 0 8 6 17 13 20 10 5 10 7 0 12 -20 9 -15 28 17 72 17 23 30 48 30
56 0 8 5 18 10 21 6 3 10 14 10 23 0 9 7 29 14 44 8 16 25 57 37 93 13 40 35
78 57 101 33 34 36 35 49 18 7 -10 13 -44 13 -78z m-231 -58 c8 -23 4 -58 -8
-58 -3 0 -13 6 -21 13 -14 11 -16 19 -12 55 3 20 32 13 41 -10z m-2424 -58 c3
-5 2 -17 -3 -26 -8 -14 -10 -14 -21 0 -13 15 -8 36 9 36 5 0 12 -4 15 -10z
m4735 -225 c0 -94 -3 -114 -17 -128 -26 -23 -190 -64 -203 -51 -13 13 39 115
92 182 20 26 49 68 64 95 26 45 28 46 46 31 15 -15 18 -33 18 -129z m4617 85
c19 -7 36 -24 46 -46 23 -47 22 -56 -9 -85 -15 -13 -35 -43 -46 -66 -27 -61
-57 -61 -167 2 -86 48 -102 66 -83 93 7 9 20 29 29 43 33 52 157 84 230 59z
m-9783 -6 c24 -9 31 -69 12 -99 -41 -63 -157 -85 -202 -40 -39 39 -29 63 46
107 61 35 109 46 144 32z m2826 -102 c0 -2 -7 -2 -15 2 -10 4 -20 -6 -30 -32
-9 -20 -41 -81 -72 -135 -48 -84 -68 -109 -145 -174 -84 -72 -88 -77 -66 -86
13 -5 113 -7 223 -4 185 5 296 18 404 47 20 5 83 21 141 35 58 13 141 36 184
50 43 14 86 25 95 25 25 0 41 -20 41 -53 0 -25 -7 -31 -67 -58 -103 -46 -118
-56 -121 -79 -3 -20 0 -21 31 -17 19 2 40 8 46 11 6 4 11 2 11 -3 0 -6 -4 -11
-9 -11 -5 0 -13 -15 -16 -32 -4 -18 -18 -53 -30 -78 -13 -25 -26 -67 -30 -95
-6 -43 -82 -208 -105 -225 -3 -3 -16 -21 -27 -40 -21 -33 -85 -100 -97 -100
-3 0 -24 -13 -48 -29 -24 -16 -59 -37 -78 -48 -19 -10 -53 -30 -75 -44 -37
-23 -90 -49 -100 -49 -3 0 -5 16 -5 35 0 33 -2 35 -35 37 -19 1 -47 2 -62 4
-92 6 -133 7 -139 2 -3 -4 -21 -4 -39 -1 -26 4 -34 2 -39 -13 -9 -33 2 49 12
91 47 181 21 431 -55 531 -18 24 -43 38 -108 59 -68 23 -82 31 -74 42 6 7 16
13 21 13 47 0 306 260 362 363 25 48 49 77 62 77 8 0 14 4 14 10 0 5 9 2 20
-7 11 -10 20 -19 20 -21z m2486 -27 c-3 -13 -20 -30 -36 -39 -27 -13 -30 -13
-30 3 0 9 9 34 20 56 11 22 20 35 20 30 0 -5 6 -3 13 4 10 10 13 8 15 -9 2
-12 1 -32 -2 -45z m2498 -24 c5 -11 13 -21 18 -21 4 0 8 -5 8 -11 0 -6 -19 -9
-47 -7 -46 3 -48 4 -51 35 -3 32 -2 33 29 29 22 -2 36 -10 43 -25z m1486 -146
c88 -12 180 -70 180 -115 0 -27 -38 -68 -82 -91 -72 -37 -147 -5 -198 83 -23
39 -29 61 -25 83 6 34 31 57 54 51 9 -3 41 -8 71 -11z m-6470 -5 c0 -5 -5 -10
-11 -10 -5 0 -7 5 -4 10 3 6 8 10 11 10 2 0 4 -4 4 -10z m-30 -30 c0 -5 -4
-10 -10 -10 -5 0 -10 5 -10 10 0 6 5 10 10 10 6 0 10 -4 10 -10z m5970 -90
c37 -37 19 -100 -29 -100 -59 0 -115 47 -101 85 12 35 100 45 130 15z m-6937
-37 c-7 -2 -19 -2 -25 0 -7 3 -2 5 12 5 14 0 19 -2 13 -5z m279 -8 c69 -4 149
-26 172 -46 5 -4 -6 -21 -24 -38 -30 -27 -38 -30 -79 -25 -108 13 -209 36
-259 59 -82 38 -54 66 58 59 30 -2 90 -6 132 -9z m3255 -171 c-3 -3 -12 -4
-19 -1 -8 3 -5 6 6 6 11 1 17 -2 13 -5z m-1785 -41 c7 -25 -1 -43 -18 -43 -9
0 -14 -11 -14 -30 0 -16 -11 -53 -25 -82 -30 -63 -100 -160 -109 -151 -12 12
-6 55 15 106 50 121 77 167 98 167 6 0 11 11 11 25 0 30 35 36 42 8z m1672 -8
c-4 -8 -9 -15 -13 -16 -31 -3 -57 -11 -65 -19 -6 -6 -30 -10 -55 -10 -43 0
-44 0 -26 20 11 12 31 20 49 20 17 0 38 5 46 10 8 5 27 10 42 10 20 0 26 -4
22 -15z m-444 -130 c0 -25 -4 -45 -9 -45 -9 0 -16 32 -27 115 l-5 40 20 -33
c13 -20 21 -49 21 -77z m230 70 c0 -12 -12 -15 -52 -15 -48 1 -51 2 -30 13 34
19 82 20 82 2z m218 -196 l-93 -172 -150 -151 c-132 -133 -160 -157 -235 -195
-47 -24 -98 -53 -114 -64 -17 -12 -44 -28 -60 -37 -100 -52 -180 -99 -249
-147 -43 -29 -81 -53 -83 -53 -5 0 -137 -91 -144 -99 -3 -3 -24 -19 -48 -35
-36 -25 -109 -86 -272 -230 -14 -12 -40 -33 -59 -46 l-34 -23 7 64 c4 35 10
86 13 112 6 58 -11 86 -22 35 -4 -18 -11 -38 -16 -44 -8 -10 -13 -28 -63 -213
-13 -52 -33 -103 -43 -113 -18 -17 -22 -17 -54 -4 -66 29 -156 130 -242 272
-20 34 -37 64 -37 68 0 3 -11 30 -25 59 -75 153 -71 306 11 468 57 114 163
196 256 198 26 1 64 13 153 49 37 15 83 48 145 104 14 12 68 56 120 96 52 41
105 84 117 96 53 51 136 105 157 102 9 -1 43 -16 75 -32 52 -26 61 -35 81 -82
22 -52 80 -112 110 -112 8 0 28 -7 44 -15 39 -20 125 -19 172 3 98 45 120 67
166 165 16 34 36 61 50 66 21 8 126 30 248 51 25 5 81 21 125 38 73 26 80 27
83 11 2 -10 -39 -95 -90 -190z m-1001 155 c-3 -3 -12 -4 -19 -1 -8 3 -5 6 6 6
11 1 17 -2 13 -5z m4649 -15 c15 -12 46 -100 38 -108 -6 -7 -111 49 -126 67
-8 9 -8 20 1 38 10 23 16 25 43 20 17 -3 37 -11 44 -17z m-6653 -16 c-7 -2
-21 -2 -30 0 -10 3 -4 5 12 5 17 0 24 -2 18 -5z m68 -66 c-8 -8 -11 0 -10 29
1 39 1 39 11 11 7 -21 7 -32 -1 -40z m2080 13 c12 0 89 -62 89 -71 0 -3 -10
-10 -23 -16 -17 -8 -28 -7 -40 2 -20 14 -48 76 -46 102 1 17 2 17 6 1 2 -10 9
-18 14 -18z m376 -32 c-3 -7 -5 -2 -5 12 0 14 2 19 5 13 2 -7 2 -19 0 -25z
m-4923 -44 c17 -17 21 -50 7 -58 -13 -8 -58 30 -64 54 -4 16 0 20 18 20 13 0
31 -7 39 -16z m3681 -54 c-10 -11 -22 -17 -26 -14 -16 10 -9 24 11 24 11 0 20
5 20 12 0 6 3 8 7 5 3 -4 -2 -16 -12 -27z m995 10 c11 -7 5 -10 -23 -10 -23 0
-36 4 -32 10 8 13 35 13 55 0z m-4194 -81 c32 -6 63 -15 69 -20 5 -5 17 -9 26
-9 9 0 27 -8 39 -18 l23 -19 -55 -54 c-30 -30 -60 -62 -65 -72 -12 -24 -76
-32 -130 -18 -50 14 -163 115 -163 147 0 60 116 89 256 63z m9640 -146 c29
-19 76 -107 67 -129 -4 -10 -23 -14 -68 -14 -62 0 -64 1 -99 42 -25 29 -36 51
-36 74 0 35 -4 33 93 42 10 1 29 -5 43 -15z m-10266 -128 c0 -18 -5 -25 -20
-25 -24 0 -43 39 -28 57 15 19 48 -3 48 -32z m-297 -61 c34 -19 69 -39 77 -44
8 -4 34 -13 58 -20 23 -6 57 -24 75 -40 18 -15 50 -31 70 -35 21 -4 52 -17 70
-29 53 -36 198 -113 256 -136 57 -22 91 -52 91 -79 0 -9 3 -87 6 -174 4 -108
2 -186 -7 -245 -7 -48 -12 -115 -11 -149 2 -58 1 -63 -18 -63 -23 0 -163 71
-197 101 -13 10 -23 23 -23 29 0 5 -12 12 -27 16 -56 12 -158 48 -173 59 -19
15 -125 65 -138 65 -14 0 -184 89 -204 107 -20 18 -24 68 -8 78 8 5 8 11 0 20
-14 17 -30 176 -29 280 1 44 -2 125 -6 179 -7 91 -6 101 11 113 24 18 49 11
127 -33z m3108 32 l34 -14 -28 -11 c-26 -10 -67 -7 -91 7 -5 3 2 11 15 18 30
17 30 17 70 0z m-840 -20 c19 -8 68 -19 109 -25 41 -6 95 -18 120 -25 25 -8
62 -17 83 -21 34 -5 37 -8 25 -22 -7 -9 -44 -30 -83 -48 -38 -18 -99 -53 -135
-79 -36 -25 -83 -57 -105 -72 -22 -14 -47 -34 -55 -43 -8 -10 -51 -48 -94 -87
-44 -38 -116 -107 -160 -154 -45 -46 -96 -99 -113 -116 -18 -18 -33 -37 -33
-43 0 -6 -4 -11 -9 -11 -13 0 -73 -86 -100 -145 -53 -113 -63 -143 -66 -198
-2 -45 -8 -64 -26 -84 -47 -49 -132 -68 -164 -36 -28 27 -16 155 25 279 18 56
41 112 51 125 l18 24 44 -44 c42 -40 45 -42 52 -22 3 12 10 21 15 21 4 0 18
21 31 48 28 59 89 163 106 181 8 7 31 39 52 70 44 64 144 162 211 206 25 17
51 36 58 43 7 6 17 12 21 12 4 0 8 6 8 14 0 8 -8 11 -21 8 -34 -8 -180 -69
-253 -106 -38 -19 -92 -44 -121 -55 -91 -36 -155 -72 -222 -125 -36 -28 -74
-58 -84 -66 -88 -67 -221 -234 -261 -325 -9 -22 -26 -60 -37 -84 -39 -82 -34
-224 8 -306 9 -16 34 -42 55 -57 41 -29 49 -57 25 -77 -18 -15 -62 10 -71 39
-3 11 -21 29 -40 40 -42 26 -59 61 -80 165 -26 127 -28 145 -17 145 5 0 13 21
17 48 7 47 31 99 114 247 36 63 75 110 184 218 76 75 142 137 147 137 5 0 15
6 22 13 18 18 125 87 134 87 4 0 21 10 38 23 17 13 57 38 89 56 31 18 57 37
57 42 0 5 10 9 23 10 12 0 16 3 9 6 -32 13 -264 -47 -426 -109 -185 -71 -292
-167 -380 -341 -32 -61 -62 -116 -66 -122 -4 -5 -10 -19 -13 -30 -2 -11 -5 -2
-6 20 -3 137 101 315 228 389 10 6 65 39 122 74 57 34 115 65 129 69 14 3 50
16 80 28 30 13 87 32 125 44 221 65 278 80 355 96 47 9 108 27 135 40 59 28
72 29 116 11z m-820 -6 c28 -16 23 -43 -11 -64 -29 -16 -33 -16 -55 -2 -24 16
-34 54 -18 69 10 11 62 8 84 -3z m1775 1 c5 -5 20 -11 34 -14 14 -2 1 -5 -28
-6 -46 -1 -51 1 -40 14 15 17 21 18 34 6z m324 -29 c0 -18 10 -36 30 -54 17
-14 30 -33 30 -41 0 -9 -17 -32 -37 -52 -32 -30 -44 -35 -78 -33 -38 3 -40 5
-43 39 l-3 37 -37 -11 c-23 -8 -66 -40 -116 -89 -44 -43 -83 -78 -87 -78 -4 0
-10 11 -13 25 -10 40 -17 36 -89 -50 -54 -65 -93 -135 -123 -220 -25 -71 -28
-93 -28 -200 0 -113 11 -190 32 -232 6 -10 20 -43 33 -73 18 -39 53 -84 132
-164 89 -91 137 -151 137 -173 0 -1 -10 -3 -22 -3 -13 0 -43 16 -68 36 -45 36
-180 169 -180 178 0 3 -15 31 -34 63 -19 32 -42 83 -51 113 -9 30 -20 62 -25
72 -15 28 -22 210 -11 294 27 209 121 361 272 440 19 9 56 34 84 54 27 21 68
47 90 58 22 11 72 36 110 56 39 20 76 36 83 36 7 0 12 -12 12 -28z m-3923 -18
c9 -23 -10 -48 -38 -52 -13 -2 -39 -15 -58 -29 -23 -18 -45 -26 -69 -25 -24 1
-47 -8 -79 -30 -37 -27 -46 -30 -54 -18 -13 20 -4 91 13 101 7 5 24 9 39 9 14
0 31 6 37 12 42 42 196 65 209 32z m8263 -105 c0 -7 21 -33 48 -60 67 -68 68
-70 147 -229 67 -136 85 -176 85 -194 0 -9 5 -16 11 -16 21 0 4 -63 -22 -82
-32 -24 -92 -38 -110 -27 -11 7 -11 9 1 9 12 1 12 2 -2 10 -9 6 -19 29 -23 59
-4 26 -13 61 -22 77 -8 16 -16 50 -18 76 -1 31 -14 72 -38 120 -20 40 -38 88
-39 106 -1 18 -8 32 -15 32 -7 0 -13 9 -13 20 0 11 -5 29 -11 39 -13 20 -5 71
11 71 6 0 10 -5 10 -11z m-7220 -29 c0 -14 -7 -20 -23 -20 -12 0 -30 9 -40 20
-16 20 -16 20 23 20 33 0 40 -3 40 -20z m-1086 -96 c8 -22 -10 -51 -36 -59
-13 -4 -32 -16 -43 -26 -11 -10 -41 -25 -65 -34 -45 -16 -45 -16 -67 10 -26
30 -29 53 -10 79 12 16 18 16 56 6 40 -11 46 -10 80 14 41 29 76 34 85 10z
m11158 -46 c-6 -6 -16 -7 -22 -3 -9 6 -9 9 1 16 17 10 34 0 21 -13z m-32 -18
c0 -5 -15 -9 -32 -9 l-33 1 30 8 c17 4 31 8 33 9 1 0 2 -3 2 -9z m298 -33 c12
-24 11 -31 -7 -61 -19 -30 -19 -35 -6 -46 8 -7 15 -28 15 -46 0 -27 -5 -35
-24 -40 -14 -3 -29 -4 -33 -1 -12 8 -39 -15 -46 -38 -8 -24 -68 -51 -157 -72
-36 -8 -76 -19 -89 -24 -19 -8 -22 -7 -18 5 4 10 -7 22 -30 36 -33 19 -35 24
-30 57 4 20 1 45 -4 56 -19 34 4 61 83 100 40 20 82 37 93 37 11 0 43 12 70
26 97 50 163 54 183 11z m-5738 -7 c0 -38 17 -39 72 -4 36 23 48 26 97 20 63
-7 99 -29 120 -71 18 -37 1 -72 -49 -98 -29 -15 -48 -17 -115 -11 -44 4 -89 6
-100 6 -11 -1 -30 5 -42 13 -12 8 -38 17 -57 19 -19 3 -49 12 -65 21 l-31 15
22 33 c19 30 105 85 136 86 7 1 12 -11 12 -29z m790 -101 c0 -25 -9 -63 -19
-85 l-19 -39 -6 35 c-3 19 -7 55 -10 80 -3 25 -8 65 -11 90 l-6 45 35 -40 c30
-33 36 -48 36 -86z m2337 34 c-2 -16 -4 -5 -4 22 0 28 2 40 4 28 2 -13 2 -35
0 -50z m-8727 27 c0 -19 -7 -33 -20 -40 -10 -6 -17 -16 -14 -23 8 -22 -38 -52
-126 -81 -47 -15 -90 -32 -97 -38 -19 -16 -55 -5 -75 23 -18 24 -18 29 -5 62
18 42 43 58 117 73 30 7 78 21 105 32 28 11 65 21 83 21 29 1 32 -2 32 -29z
m8697 -92 c-3 -8 -6 -5 -6 6 -1 11 2 17 5 13 3 -3 4 -12 1 -19z m2151 -70 c16
-20 22 -88 14 -152 -8 -66 -30 -91 -95 -106 -47 -10 -53 -2 -68 87 -18 108 -1
162 56 176 39 9 83 7 93 -5z m-224 -107 c3 -4 7 -47 8 -94 3 -101 -6 -116 -90
-153 -58 -26 -79 -23 -93 13 -13 35 -11 144 4 172 18 36 156 86 171 62z
m-11093 -42 c99 -33 144 -62 222 -144 55 -59 141 -216 132 -244 -3 -12 -22
-23 -50 -30 -107 -27 -292 1 -408 62 -132 69 -253 205 -245 275 2 21 14 32 56
51 28 14 55 33 58 43 9 31 122 24 235 -13z m7611 -103 c4 -6 8 -47 8 -91 0
-76 -1 -81 -32 -112 -18 -18 -37 -33 -44 -33 -16 0 -34 85 -34 159 0 43 5 62
18 73 31 28 67 29 84 4z m-6844 -64 c49 -37 43 -55 -15 -46 -61 8 -63 10 -63
43 0 47 17 48 78 3z m8172 -7 c0 -8 -2 -15 -4 -15 -2 0 -6 7 -10 15 -3 8 -1
15 4 15 6 0 10 -7 10 -15z m-898 -17 c26 -41 28 -75 12 -215 -22 -191 -43
-230 -103 -184 -23 18 -23 18 -8 77 8 32 22 73 31 89 12 22 16 59 16 143 0
103 2 112 19 112 10 0 25 -10 33 -22z m-5869 5 c-7 -2 -19 -2 -25 0 -7 3 -2 5
12 5 14 0 19 -2 13 -5z m6903 -18 c6 -14 42 -31 58 -26 5 1 13 -4 18 -11 5 -8
6 -3 2 13 -3 15 -1 30 5 33 7 5 11 -4 11 -23 0 -22 4 -29 14 -25 7 3 16 -3 20
-13 3 -10 15 -31 26 -48 11 -16 22 -37 26 -45 8 -20 43 -91 54 -110 5 -8 17
-36 27 -62 10 -27 23 -48 28 -48 6 -1 20 -22 33 -48 54 -110 105 -133 110 -49
2 26 8 47 13 47 16 0 79 -73 79 -92 0 -10 5 -18 10 -18 6 0 10 -5 10 -12 0 -6
6 -19 14 -27 25 -27 69 -124 84 -181 7 -30 20 -82 28 -115 20 -79 35 -248 28
-305 -8 -68 -33 -170 -51 -215 -43 -102 -181 -282 -243 -315 -36 -19 -30 8 11
46 66 64 108 128 140 214 26 71 29 93 28 188 0 98 -22 229 -42 248 -4 4 -7 16
-7 26 0 27 -39 132 -50 136 -6 2 -10 8 -10 14 0 5 -13 28 -29 51 -15 23 -31
52 -35 64 -4 12 -20 39 -36 60 -17 21 -40 51 -53 68 -12 16 -29 37 -38 46 -24
24 -38 73 -28 92 8 13 3 20 -21 32 -16 8 -30 22 -30 30 0 8 -9 24 -19 34 -11
11 -21 27 -23 38 -2 10 -10 17 -17 15 -19 -4 -43 19 -37 35 3 8 1 11 -4 8 -6
-3 -10 1 -10 10 0 8 -9 23 -20 32 -11 10 -20 22 -20 27 0 5 -19 26 -42 47 -38
36 -40 41 -29 65 16 35 0 54 -29 36 -24 -15 -26 -5 -4 26 17 25 42 29 50 7z
m2704 -116 l0 -79 -32 -14 c-96 -40 -138 -56 -188 -71 -30 -9 -64 -20 -75 -25
-11 -5 -54 -18 -95 -30 -41 -12 -88 -26 -103 -32 -43 -17 -57 10 -54 101 l2
74 90 36 c50 21 124 47 165 59 41 13 95 30 120 38 162 57 170 54 170 -57z
m-10764 23 c49 -27 115 -59 147 -72 81 -33 103 -57 116 -121 13 -68 15 -99 13
-225 -2 -93 -4 -102 -22 -107 -12 -3 -33 1 -48 9 -40 21 -49 18 -56 -21 -7
-36 -37 -64 -71 -66 -11 -1 -2 -6 20 -11 45 -12 55 -22 48 -49 -7 -25 -75 -44
-102 -29 -24 12 -68 13 -75 1 -4 -5 7 -12 24 -16 16 -4 30 -11 30 -16 0 -5 7
-9 15 -9 9 0 50 -16 91 -35 41 -19 81 -35 89 -35 8 0 19 -9 25 -19 13 -26 13
-124 -1 -138 -8 -8 -38 0 -107 27 -54 21 -115 44 -137 50 -57 18 -129 51 -137
63 -11 19 -13 840 -1 860 10 17 56 4 139 -41z m-211 -4 c13 -43 15 -540 2
-576 -8 -24 -8 -35 0 -40 12 -8 10 -183 -2 -239 -6 -29 -11 -33 -41 -33 -28 0
-34 4 -34 23 -1 12 -7 33 -15 47 -19 32 -19 125 -1 142 9 9 11 21 5 42 -5 16
-6 40 -2 53 3 14 0 35 -7 48 -8 16 -10 45 -6 92 3 37 6 73 6 78 1 6 -1 75 -4
155 -3 80 -3 153 0 163 5 15 68 65 85 66 4 1 10 -9 14 -21z m8237 -160 c-18
-18 -33 0 -20 22 11 17 14 18 21 4 6 -10 5 -20 -1 -26z m-4042 -31 c0 -32 -6
-49 -21 -63 -19 -17 -23 -17 -47 -3 -57 31 -32 109 35 109 32 0 33 -1 33 -43z
m2553 23 c-3 -11 -7 -20 -9 -20 -2 0 -8 9 -14 20 -9 17 -8 20 9 20 14 0 18 -5
14 -20z m-6090 -12 c10 -5 22 -21 28 -35 10 -28 17 -677 10 -995 -1 -18 1 -87
4 -153 7 -140 -2 -208 -28 -213 -26 -5 -105 37 -112 59 -13 39 -9 293 4 318
11 19 11 25 0 32 -11 6 -15 74 -20 321 -4 172 -10 333 -14 358 -13 81 -11 283
4 309 12 21 17 22 59 16 26 -4 55 -11 65 -17z m7647 -94 c0 -8 -5 -12 -10 -9
-6 4 -8 11 -5 16 9 14 15 11 15 -7z m-6776 -9 c3 -9 -4 -21 -19 -31 -13 -8
-28 -28 -33 -43 -5 -15 -23 -40 -39 -57 -55 -56 -188 -260 -212 -326 -48 -131
-54 -323 -12 -413 49 -105 62 -132 72 -146 7 -9 9 -24 5 -34 -6 -15 -14 -11
-56 32 -75 74 -93 133 -93 303 0 76 5 155 12 180 7 25 17 63 22 85 13 53 83
197 124 254 17 25 57 73 88 106 32 33 57 63 57 67 0 5 7 8 15 8 9 0 18 7 21
15 8 19 40 19 48 0z m6792 -48 c11 4 14 -7 14 -53 l-1 -59 -14 33 c-8 18 -21
35 -30 39 -13 5 -14 7 -3 14 10 7 9 9 -4 9 -10 0 -18 4 -18 9 0 12 34 20 38 9
2 -4 10 -4 18 -1z m-9077 -30 c86 -41 78 -107 -12 -107 -66 0 -114 65 -91 125
8 20 34 15 103 -18z m7533 -15 c-20 -15 -54 -12 -59 5 -6 16 48 32 64 19 9 -9
8 -14 -5 -24z m4076 -34 c5 -7 13 -47 16 -88 3 -41 5 -77 6 -79 0 -3 6 4 14
15 8 11 11 23 6 29 -12 14 3 77 26 109 20 26 34 33 34 16 0 -6 16 -18 36 -27
20 -10 42 -31 50 -48 7 -16 19 -37 25 -46 14 -19 5 -63 -17 -81 -55 -46 -57
-49 -37 -63 24 -18 7 -47 -35 -59 -47 -13 -62 -3 -62 44 0 41 -5 46 -28 31
-11 -7 -11 -9 2 -14 23 -9 20 -63 -4 -87 -29 -29 -74 -26 -96 8 -11 15 -19 34
-20 42 -5 75 -6 75 -23 10 -9 -36 -24 -79 -34 -96 -31 -60 -93 -79 -116 -36
-4 9 -6 66 -2 125 3 60 3 111 -1 114 -13 8 -9 83 7 112 9 19 25 30 45 35 49 9
66 -6 79 -71 6 -32 18 -69 26 -83 14 -25 14 -25 15 15 0 22 4 56 10 75 7 23 6
36 0 40 -23 14 13 70 45 70 12 0 27 -6 33 -12z m-3718 -33 c15 -18 8 -128 -14
-245 -55 -288 -58 -309 -60 -445 -1 -149 3 -166 74 -320 60 -133 102 -231 130
-310 18 -49 36 -99 41 -110 5 -11 14 -40 19 -65 42 -192 53 -240 69 -289 10
-31 22 -77 25 -103 7 -43 5 -48 -12 -48 -25 0 -44 40 -82 179 -18 62 -42 139
-55 170 -45 113 -138 292 -175 334 -21 23 -45 60 -54 81 -19 46 -21 110 -3
128 35 36 19 59 -63 93 -86 36 -150 71 -147 80 3 6 30 9 68 7 35 -1 70 2 77 7
10 6 14 51 16 187 2 123 8 202 19 254 9 41 24 107 32 145 8 39 21 102 30 140
8 39 15 80 15 92 0 50 25 69 50 38z m-3824 -18 c25 -22 26 -27 20 -80 -5 -36
-16 -67 -30 -85 -12 -15 -33 -44 -45 -65 -12 -20 -27 -35 -32 -31 -10 6 -13
267 -2 277 14 15 63 6 89 -16z m7256 -31 c4 -6 8 -32 8 -58 0 -35 -5 -52 -21
-67 -24 -22 -136 -51 -198 -51 -33 0 -44 -5 -62 -29 -12 -16 -39 -37 -61 -47
-36 -16 -43 -16 -67 -3 -30 17 -39 66 -22 113 13 32 71 60 113 54 23 -4 34 2
53 24 33 39 200 101 230 85 11 -5 23 -15 27 -21z m-9493 -106 l24 0 -27 -21
c-14 -11 -36 -19 -48 -17 -19 2 -23 10 -24 43 -2 56 5 61 30 26 13 -19 30 -31
45 -31z m3468 -5 c144 -18 226 -37 363 -83 201 -67 342 -128 405 -176 50 -39
175 -163 175 -175 0 -6 5 -11 10 -11 13 0 38 -26 69 -68 20 -28 23 -42 18 -82
-3 -27 -17 -66 -30 -87 -32 -50 -24 -71 61 -157 70 -71 69 -79 -8 -82 -76 -3
-202 -31 -265 -59 -33 -15 -78 -35 -100 -45 -22 -10 -60 -25 -85 -33 -106 -36
-331 -147 -560 -275 -25 -14 -72 -39 -105 -57 -136 -73 -181 -98 -190 -105 -5
-4 -20 -11 -33 -15 -12 -3 -86 -45 -165 -91 -78 -47 -178 -103 -222 -126 -44
-22 -100 -51 -125 -64 -25 -13 -51 -24 -57 -24 -7 0 -13 -4 -13 -9 0 -5 -12
-11 -27 -14 -16 -3 -48 -24 -72 -46 -24 -21 -68 -51 -97 -65 -28 -14 -65 -37
-81 -50 -16 -13 -45 -27 -64 -31 -59 -11 -64 4 -63 189 0 132 5 186 27 297 29
144 35 295 17 394 -5 28 -19 127 -30 220 -12 94 -28 206 -36 250 -8 44 -20
160 -26 258 -11 175 -11 177 10 197 12 11 25 20 31 20 5 0 12 6 14 13 3 6 6 0
6 -15 1 -15 13 -47 29 -72 21 -36 31 -44 47 -39 23 6 36 23 29 35 -3 4 0 8 5
8 6 0 11 5 11 11 0 7 12 22 26 34 24 20 26 28 21 66 -7 50 6 79 33 79 10 0 25
6 32 13 17 16 68 35 143 54 44 11 144 16 385 19 179 3 330 7 335 9 18 6 32 5
152 -10z m4642 -89 c13 -16 4 -71 -15 -87 -32 -27 -63 26 -44 75 10 28 40 35
59 12z m-10136 -76 c-6 -24 -15 -25 -53 -5 -33 17 -40 51 -12 57 27 7 71 -28
65 -52z m6878 3 c-9 -16 -10 -16 -11 -1 0 9 3 25 7 35 7 16 8 17 11 1 2 -10
-1 -25 -7 -35z m-30 -51 c-6 -2 -13 -19 -17 -38 -4 -24 -12 -34 -25 -34 -16 0
-19 8 -19 45 0 35 3 43 15 39 8 -4 15 -1 15 6 0 6 4 9 9 6 5 -3 12 4 16 17 7
21 8 20 12 -8 3 -16 0 -31 -6 -33z m4622 6 c36 -42 7 -74 -79 -88 -33 -5 -74
-14 -93 -20 -48 -13 -70 4 -59 46 6 24 18 35 55 52 103 45 143 48 176 10z
m-787 -88 c71 -72 84 -101 84 -192 0 -43 4 -78 8 -78 4 0 27 20 51 44 39 40
70 59 156 97 17 7 60 15 97 18 73 7 78 3 78 -46 0 -14 9 -40 20 -58 48 -78 12
-204 -77 -269 -26 -20 -59 -36 -73 -37 -14 0 -41 -6 -60 -13 l-35 -13 40 -7
c22 -4 45 -11 50 -15 6 -4 38 -18 72 -31 48 -17 68 -30 84 -56 21 -34 29 -36
87 -18 17 5 15 56 -3 80 -8 10 -15 27 -15 38 0 21 44 66 65 66 21 0 72 47 78
72 5 18 20 27 72 42 63 18 66 18 85 1 11 -10 20 -26 20 -35 0 -25 21 -40 55
-40 17 0 36 -5 42 -11 9 -9 21 -8 47 5 49 23 92 30 101 16 11 -18 8 -79 -5
-95 -21 -25 -7 -59 33 -78 37 -18 43 -30 31 -61 -5 -12 -20 -16 -58 -16 -38 0
-56 -5 -68 -19 -14 -16 -14 -21 -2 -33 13 -13 11 -16 -11 -26 -26 -12 -26 -11
-29 30 -1 26 -25 36 -40 17 -6 -8 -22 -15 -36 -17 -28 -4 -59 -38 -60 -64 0
-9 -5 -20 -11 -23 -6 -4 -7 -19 -4 -35 9 -42 -26 -34 -37 8 -8 32 -50 72 -74
72 -8 0 -14 6 -14 13 0 35 -67 67 -99 48 -11 -7 -9 -13 7 -29 11 -11 28 -22
39 -24 13 -2 17 -11 15 -33 -3 -41 6 -50 58 -61 l45 -9 0 -61 c0 -36 5 -67 13
-77 23 -27 6 -34 -60 -25 -72 10 -69 10 -123 6 -57 -5 -69 -14 -50 -41 8 -11
26 -26 39 -31 l25 -11 -23 -25 c-12 -14 -33 -31 -45 -38 -20 -11 -25 -11 -35
3 -6 9 -25 17 -41 18 -35 3 -40 21 -7 25 12 2 22 10 22 18 0 14 -5 16 -50 18
-31 1 -29 27 3 59 16 16 34 21 77 22 l55 0 -3 40 c-2 22 -10 55 -18 74 -8 18
-14 42 -14 52 0 10 -6 22 -14 26 -20 12 -24 37 -8 49 19 14 10 39 -17 54 -20
10 -21 8 -21 -35 0 -52 -39 -130 -69 -140 -10 -3 -21 -19 -24 -35 -23 -112
-295 -22 -365 121 l-20 41 -7 -69 c-12 -126 -50 -198 -113 -209 -20 -4 -42
-10 -48 -15 -6 -5 -25 -4 -43 1 -26 7 -34 6 -44 -11 -16 -26 -36 -24 -47 6 -5
14 -21 30 -35 37 -14 6 -25 15 -25 19 0 5 -13 22 -29 38 l-29 30 -7 -45 c-3
-25 -3 -59 1 -77 10 -48 51 -107 74 -107 13 0 24 -10 30 -25 11 -28 28 -33 36
-10 4 8 16 15 29 15 19 0 24 -7 29 -43 l7 -43 64 -1 65 0 0 36 c1 47 23 73 91
105 80 37 90 35 117 -25 28 -59 48 -71 71 -40 13 17 24 21 44 17 15 -3 39 -8
53 -11 22 -5 25 -10 23 -38 -3 -37 19 -77 41 -77 9 0 26 7 38 16 35 24 72 11
72 -26 0 -36 23 -50 79 -50 30 0 44 -5 53 -20 7 -11 24 -20 38 -21 22 -1 21
-2 -7 -10 -24 -7 -33 -15 -33 -32 -1 -29 -39 -56 -81 -57 -95 -1 -119 5 -149
39 -17 18 -30 34 -30 36 0 2 16 1 35 -2 26 -4 36 -2 41 11 8 20 -14 49 -32 42
-13 -5 -44 24 -44 42 0 20 -10 14 -59 -36 -72 -74 -106 -100 -146 -111 -34 -9
-39 -8 -65 20 -22 24 -32 29 -53 23 -15 -3 -27 -11 -27 -17 0 -6 -3 -7 -7 -4
-3 4 -11 0 -17 -8 -8 -10 -20 -12 -46 -6 -19 5 -27 9 -17 10 9 1 17 6 17 11 0
6 7 10 15 10 16 0 20 36 6 59 -11 16 -46 7 -75 -21 -16 -15 -30 -18 -58 -15
-35 5 -67 -11 -52 -26 14 -13 -19 -78 -46 -92 -39 -20 -62 -19 -93 5 -14 11
-32 20 -41 20 -9 0 -19 8 -23 18 -3 9 -13 25 -22 36 -16 18 -18 28 -23 121 -3
49 -4 50 -51 73 -45 21 -48 25 -42 52 l6 29 -58 -20 c-44 -15 -62 -27 -70 -47
-31 -74 -43 -106 -43 -119 0 -21 42 -33 61 -17 29 25 95 9 141 -35 9 -9 24
-22 33 -30 15 -12 15 -15 -3 -35 -11 -11 -22 -30 -26 -41 -3 -11 -19 -35 -34
-53 -27 -32 -29 -32 -45 -14 -9 10 -17 26 -17 35 0 23 -37 22 -45 -2 -3 -10
-36 -34 -74 -53 l-68 -35 -19 31 c-10 17 -17 43 -15 59 2 21 -2 27 -18 27 -11
0 -23 -5 -27 -11 -3 -6 -20 -17 -38 -24 -32 -14 -55 -8 -83 21 -7 7 -17 14
-23 16 -11 3 -14 26 -8 63 4 24 -31 31 -96 20 -34 -5 -48 -15 -78 -56 -21 -27
-38 -56 -38 -64 0 -8 -11 -20 -25 -27 -31 -14 -47 -2 -77 58 -16 33 -27 44
-45 44 -16 0 -23 -6 -23 -20 0 -24 -13 -26 -30 -5 -7 8 -16 15 -21 15 -15 0
-10 -30 7 -37 10 -4 14 -13 10 -29 -4 -14 -1 -26 8 -31 24 -14 26 -47 5 -72
-15 -19 -25 -22 -51 -17 -48 10 -68 33 -68 81 0 22 5 46 11 52 6 6 13 27 16
46 3 29 0 38 -16 47 -12 6 -21 19 -21 30 0 24 -36 49 -61 43 -27 -7 -49 14
-49 48 0 22 6 30 26 35 19 5 38 -2 78 -30 29 -20 55 -36 59 -36 4 0 25 16 47
37 29 25 50 36 70 35 34 -1 50 20 50 67 0 29 2 30 20 19 24 -15 25 -35 4 -76
-36 -72 11 -92 100 -43 30 17 62 31 70 31 22 0 29 17 32 85 3 70 0 77 -41 90
-19 6 -36 23 -47 45 -16 32 -16 35 -1 53 11 12 24 16 38 12 11 -3 54 -8 95
-11 106 -6 116 -10 130 -44 19 -46 83 -70 96 -36 5 12 -17 143 -32 198 -3 9 9
32 27 53 29 33 36 36 78 33 40 -3 48 -8 73 -43 26 -36 28 -46 23 -97 -3 -32
-12 -70 -20 -85 -17 -32 -12 -43 21 -43 29 0 66 34 58 54 -6 16 29 56 49 56 7
0 18 -5 25 -12 9 -9 17 -6 37 12 13 12 22 26 20 30 -3 4 5 19 16 34 25 32 85
37 91 9 2 -10 7 16 11 57 4 46 16 94 31 122 12 26 21 50 18 53 -3 3 -30 5 -59
5 -46 0 -63 6 -108 36 -73 48 -123 154 -81 170 7 3 16 22 20 43 3 21 13 44 21
51 8 7 15 18 15 26 0 7 10 20 22 28 26 19 141 21 203 5 92 -24 92 -24 73 -3
-32 37 -51 102 -46 163 3 49 11 70 44 118 25 36 48 58 60 59 10 0 33 8 49 17
45 25 57 21 111 -33z m-10151 -7 c43 -45 91 -138 99 -193 5 -38 0 -95 -16
-159 -7 -28 27 -34 74 -12 26 11 64 21 86 21 40 0 124 -26 177 -54 21 -11 43
-14 72 -10 22 3 49 2 59 -4 15 -8 12 -13 -24 -36 -23 -14 -42 -29 -42 -32 0
-3 8 -19 17 -35 16 -27 16 -31 0 -58 -9 -16 -17 -34 -17 -40 0 -28 -49 -76
-100 -99 -43 -19 -78 -25 -160 -30 -81 -4 -99 -7 -78 -14 15 -5 30 -19 34 -31
3 -12 12 -28 18 -36 14 -18 35 -113 35 -166 1 -47 -13 -70 -87 -142 -67 -66
-105 -78 -182 -58 -78 20 -116 41 -145 79 -27 36 -55 126 -55 179 0 18 -3 42
-6 54 -6 20 -11 16 -43 -37 -61 -100 -142 -144 -266 -141 -103 2 -119 8 -135
49 -7 20 -14 64 -14 97 0 162 141 305 301 305 83 0 103 -11 103 -56 0 -44 16
-50 78 -30 33 11 63 14 91 10 38 -6 41 -5 35 12 -4 11 -14 25 -22 31 -23 19
-9 26 22 12 19 -9 30 -9 38 -1 20 20 1 42 -37 42 -41 0 -42 2 -14 39 23 32 20
46 -11 54 -13 3 -24 -1 -30 -13 -6 -12 -27 -21 -55 -26 -44 -6 -47 -5 -78 31
-27 31 -37 36 -51 28 -16 -9 -16 -11 -2 -22 9 -8 16 -10 17 -5 0 5 6 -7 12
-26 10 -28 17 -34 35 -32 12 2 22 -2 22 -7 0 -6 -10 -12 -22 -13 -13 -1 -41
-3 -63 -5 -22 -3 -76 -5 -120 -6 -67 -1 -87 3 -125 23 -103 56 -167 153 -177
268 l-6 69 59 28 c32 15 75 30 96 33 58 7 158 -24 234 -74 37 -24 70 -44 75
-44 4 0 10 -6 13 -12 4 -7 3 -2 0 12 -3 14 -8 53 -11 88 -7 80 13 134 67 187
35 35 48 41 98 45 75 7 88 3 127 -37z m-688 11 c1 -5 -1 -15 -6 -23 -7 -10
-13 -11 -32 -1 -22 12 -22 13 -4 26 20 15 37 14 42 -2z m11338 -4 c9 -15 -5
-78 -19 -83 -7 -3 -24 -3 -39 0 -20 4 -27 11 -27 29 0 43 66 85 85 54z
m-10039 -28 c44 -16 100 -40 125 -54 24 -14 61 -31 81 -38 21 -6 41 -16 45
-23 12 -19 15 -211 4 -240 -10 -27 -14 -29 -54 -24 -51 6 -220 57 -264 80 -18
10 -36 25 -41 35 -13 24 -21 256 -10 276 12 21 20 21 114 -12z m-196 -24 c-1
-28 -2 -30 -11 -15 -6 10 -8 25 -5 33 9 24 16 16 16 -18z m1066 -405 c32 -42
21 -57 -26 -35 -34 17 -47 40 -36 67 8 21 31 9 62 -32z m2 -142 c20 -12 35
-90 22 -106 -12 -15 -60 -5 -86 16 -16 14 -18 52 -4 80 11 20 45 25 68 10z
m4693 -76 c65 -30 309 -192 309 -206 0 -17 -18 -16 -103 6 -66 17 -102 33
-145 65 -65 48 -142 124 -142 140 0 15 43 12 81 -5z m-3331 -26 c15 -27 6 -49
-19 -49 -22 0 -39 39 -26 59 10 18 33 13 45 -10z m-1025 -26 c42 -22 45 -29
45 -111 0 -87 -6 -92 -87 -64 -79 27 -92 62 -67 181 4 21 9 22 42 16 20 -4 50
-14 67 -22z m-934 7 c25 -14 25 -61 -1 -83 -11 -9 -20 -23 -20 -31 0 -25 -63
-66 -101 -66 -19 0 -39 -4 -45 -10 -13 -13 -94 30 -107 57 -13 29 9 100 34
114 29 15 75 10 101 -11 l25 -19 28 29 c30 32 54 37 86 20z m10912 4 c45 -8
47 -22 12 -87 -13 -26 -22 -53 -19 -61 3 -8 -3 -16 -15 -19 -15 -3 -21 -13
-21 -31 0 -18 -5 -26 -18 -26 -25 0 -74 -53 -70 -76 3 -19 2 -19 -59 -10 -12
2 -34 11 -48 20 -18 12 -30 14 -44 7 -10 -6 -21 -8 -24 -4 -12 11 -19 -27 -9
-40 12 -14 5 -57 -8 -57 -4 0 -10 6 -13 14 -6 16 -48 10 -59 -9 -4 -7 -24 -9
-55 -6 -40 5 -49 10 -51 28 -3 17 3 26 22 32 18 7 23 15 19 30 -3 12 -14 21
-24 21 -23 0 -69 -38 -69 -57 0 -14 -46 -18 -52 -5 -1 4 -38 32 -80 62 -71 49
-78 57 -78 87 0 41 15 48 76 37 50 -10 84 -41 87 -82 1 -12 8 -23 17 -24 8 0
22 -2 30 -3 24 -2 32 6 20 20 -8 10 -3 20 20 43 16 17 30 41 30 54 0 32 11 46
43 52 15 3 38 8 52 11 14 3 25 12 25 21 0 12 8 14 38 8 20 -4 45 -11 54 -15
30 -16 52 -10 108 30 57 41 86 47 163 35z m-3551 -21 c10 -9 18 -22 18 -29 0
-8 10 -34 22 -58 21 -43 21 -46 4 -65 -10 -10 -29 -22 -43 -26 -14 -3 -32 -13
-40 -20 -8 -8 -28 -15 -44 -15 -45 0 -59 52 -37 141 7 29 39 70 61 79 32 13
38 12 59 -7z m-7087 -57 c11 -12 39 -27 61 -34 23 -7 44 -19 47 -27 7 -17 59
-45 96 -51 40 -7 91 -27 91 -36 0 -4 -11 -15 -25 -24 -24 -15 -27 -15 -44 0
-25 23 -46 20 -65 -9 -23 -35 -54 -32 -122 15 -41 27 -70 40 -93 40 -41 0 -99
36 -107 67 -9 32 9 54 57 73 51 20 76 17 104 -14z m4560 -62 c10 -32 31 -70
46 -85 34 -34 38 -76 9 -105 -38 -38 -50 -44 -82 -44 -27 1 -40 9 -68 45 -19
24 -44 67 -55 94 -13 35 -26 52 -42 56 -13 3 -23 9 -23 14 0 16 174 94 191 85
3 -2 14 -29 24 -60z m-3595 1 c13 -14 42 -36 65 -49 22 -14 62 -48 89 -78 26
-29 59 -65 72 -81 20 -21 31 -26 51 -21 28 7 99 -12 126 -34 22 -19 24 -137 2
-188 l-14 -35 -28 18 c-15 9 -49 39 -75 65 -46 45 -48 50 -48 103 0 35 -4 54
-10 50 -5 -3 -10 2 -11 12 0 10 -7 -4 -14 -31 -7 -26 -24 -59 -36 -72 -23 -25
-72 -33 -84 -14 -3 6 -25 10 -48 10 -34 -1 -39 -3 -24 -11 10 -6 31 -11 47
-11 25 -1 28 -4 19 -19 -12 -24 18 -41 59 -33 37 8 52 -15 52 -80 0 -37 -18
-76 -35 -76 -16 0 -35 15 -35 28 0 12 -3 13 -12 4 -20 -20 -53 -13 -83 18 -21
22 -32 27 -41 19 -16 -14 -34 -3 -34 20 0 9 -11 27 -24 38 l-24 21 -12 -24
c-14 -25 -39 -39 -51 -27 -4 4 -10 23 -14 41 -4 26 0 38 21 59 l27 27 17 -22
c17 -21 17 -21 27 16 5 20 8 82 6 137 -7 230 -5 245 31 245 12 0 33 -11 46
-25z m388 -50 c-2 -8 -8 -11 -14 -7 -8 5 -9 14 -1 32 8 20 11 22 14 8 3 -10 3
-25 1 -33z m-2054 -6 l35 -41 115 1 c118 2 156 -7 156 -35 0 -23 64 -76 113
-94 42 -16 42 -16 81 14 41 31 134 62 149 47 4 -4 8 -19 7 -32 -1 -66 0 -81 9
-96 8 -16 11 -15 21 8 l12 26 46 -23 c26 -13 53 -24 61 -24 18 0 51 -29 51
-45 0 -7 9 -23 19 -37 13 -16 16 -29 11 -38 -10 -16 37 -50 68 -50 29 0 59 27
65 60 8 38 37 40 84 4 41 -31 42 -52 3 -89 -16 -16 -30 -34 -30 -41 0 -18 19
-27 33 -17 14 11 107 5 107 -7 0 -5 -10 -10 -22 -12 -19 -2 -22 -8 -20 -35 5
-49 -13 -73 -53 -73 -24 0 -37 -6 -45 -20 -6 -11 -18 -20 -27 -20 -8 0 -31 -9
-49 -21 -29 -18 -35 -18 -40 -6 -3 9 -18 21 -32 27 -59 24 -81 42 -93 74 -6
18 -21 37 -33 42 -11 5 -22 18 -24 29 -6 32 -17 37 -81 36 -39 0 -76 -8 -105
-22 -49 -23 -114 -20 -140 6 -7 7 -24 15 -37 17 -14 2 -25 11 -27 23 -6 30
-18 38 -46 31 -21 -5 -26 -12 -26 -38 0 -38 -25 -68 -56 -68 -12 0 -34 -4 -49
-10 -18 -7 -31 -6 -45 2 -17 11 -17 15 -5 45 14 33 14 34 -13 44 -28 11 -50
14 -67 9 -34 -9 -45 1 -45 40 0 38 -3 41 -41 57 -30 12 -45 25 -56 50 -7 19
-29 43 -47 54 -42 25 -47 37 -51 119 -3 96 7 122 57 147 24 12 48 22 55 22 6
1 27 -18 47 -40z m2006 -31 c0 -14 -4 -14 -24 -5 -24 11 -40 40 -29 51 9 9 52
-28 53 -46z m5466 -3 c4 -9 18 -21 31 -29 25 -13 25 -14 24 -134 -2 -112 -1
-122 20 -141 l22 -20 -26 -10 c-20 -8 -35 -5 -66 10 -22 10 -44 19 -49 19 -47
0 -94 200 -62 260 28 52 93 80 106 45z m-5417 -27 c0 -13 -3 -17 -6 -10 -2 6
-11 12 -19 12 -8 0 -14 5 -14 10 0 6 9 10 20 10 14 0 20 -6 19 -22z m4054 7
c61 -1 79 -7 191 -64 68 -34 146 -76 172 -93 27 -17 67 -41 89 -53 22 -12 58
-32 80 -45 97 -56 350 -177 504 -242 53 -22 120 -51 150 -64 29 -13 62 -24 72
-24 10 0 33 -6 51 -14 43 -18 112 -37 278 -77 198 -47 338 -119 278 -142 -13
-5 -307 0 -438 7 -93 5 -106 10 -150 56 -30 32 -47 40 -125 58 -49 12 -91 26
-93 32 -2 5 -13 10 -24 10 -11 0 -32 6 -46 14 -15 8 -52 24 -82 36 -30 11 -65
26 -77 32 -15 7 -31 7 -54 -1 -48 -17 -108 -14 -116 5 -3 9 0 20 8 25 9 7 -11
9 -61 8 -41 -1 -88 3 -103 10 -16 6 -42 11 -58 11 -16 0 -29 2 -29 4 0 2 -2
11 -6 19 -4 10 11 19 54 31 86 24 92 36 29 68 -165 83 -283 116 -348 98 -19
-6 -58 -10 -88 -10 -52 0 -53 1 -37 18 9 11 41 27 72 38 31 10 60 27 65 36 5
10 18 18 29 18 36 0 29 18 -13 33 -107 38 -176 57 -207 57 -19 0 -59 15 -96
35 -34 19 -71 35 -81 36 -16 0 -16 1 2 10 11 5 31 17 45 25 17 10 36 12 60 8
19 -4 66 -8 103 -9z m1875 -7 c2 -9 -5 -18 -15 -21 -15 -4 -14 -5 3 -6 33 -2
46 -23 34 -57 -5 -16 -9 -42 -8 -59 5 -96 3 -100 -66 -135 -35 -17 -78 -47
-95 -66 -17 -19 -38 -34 -46 -34 -8 0 -24 21 -35 48 -21 45 -21 49 -6 92 9 25
16 57 16 72 0 49 18 76 75 109 31 19 69 44 83 56 30 26 55 26 60 1z m-6610
-14 c17 -7 32 -19 33 -26 0 -7 2 -26 3 -43 2 -16 -4 -46 -12 -65 -8 -19 -18
-55 -21 -80 -6 -44 -7 -45 -46 -50 -22 -3 -46 -9 -53 -13 -8 -5 -15 0 -21 15
-10 27 -7 259 3 277 9 13 61 6 114 -15z m6272 22 c0 -3 -4 -8 -10 -11 -5 -3
-10 -1 -10 4 0 6 5 11 10 11 6 0 10 -2 10 -4z m720 -17 c18 -32 18 -104 0
-104 -18 0 -55 87 -47 109 9 22 34 20 47 -5z m-5932 -155 c18 -5 22 -13 20
-33 -3 -24 -8 -26 -52 -29 -55 -4 -71 6 -62 36 9 28 48 38 94 26z m-3268 -54
c-31 -24 -54 -30 -71 -19 -11 7 -11 9 2 9 9 0 19 7 23 15 3 9 18 15 38 15 l33
0 -25 -20z m6243 -147 c12 -19 31 -35 100 -83 36 -24 73 -57 83 -72 11 -15 23
-28 29 -28 18 0 75 -64 75 -86 0 -17 -11 -25 -62 -42 -128 -42 -147 -27 -73
59 25 29 45 56 45 60 0 3 -18 9 -40 12 -22 3 -47 12 -55 21 -9 9 -19 16 -23
16 -4 0 -16 14 -27 30 -11 16 -25 30 -32 30 -6 0 -25 14 -41 30 -17 17 -37 30
-46 30 -24 0 -43 54 -37 104 1 9 91 -61 104 -81z m-3969 71 c18 -7 21 -30 6
-39 -19 -12 -39 3 -33 24 6 24 5 23 27 15z m6196 -20 c0 -8 -6 -14 -14 -14 -9
0 -12 7 -9 20 6 22 23 18 23 -6z m-7876 -5 c36 -19 44 -20 79 -8 38 13 40 12
59 -14 11 -15 26 -27 34 -27 23 0 45 -55 38 -98 -4 -29 -2 -43 11 -55 23 -23
27 -22 75 18 43 36 73 48 50 20 -18 -21 6 -48 35 -41 12 3 25 3 28 -1 17 -17
-61 -63 -107 -63 -12 0 -28 -6 -34 -12 -10 -10 -17 -10 -32 0 -11 7 -20 8 -20
4 0 -13 -80 -62 -101 -62 -10 0 -19 6 -19 13 0 20 -67 67 -96 67 -14 0 -48 -8
-73 -17 -26 -9 -56 -13 -65 -10 -17 7 -16 9 7 32 15 16 31 23 41 19 27 -10 13
40 -21 74 -26 27 -8 77 20 54 9 -8 17 -3 29 18 10 17 13 32 7 35 -10 7 -12 58
-2 68 10 10 15 9 57 -14z m2699 -31 c3 -18 9 -42 13 -52 7 -17 3 -18 -42 -14
-85 9 -94 14 -94 59 0 35 6 39 65 39 51 0 53 -1 58 -32z m-2988 -22 c31 -11
42 -21 51 -47 9 -28 18 -35 45 -39 30 -4 34 -9 34 -35 0 -23 -5 -31 -21 -33
-11 -2 -27 4 -34 13 -7 8 -23 15 -36 15 -12 0 -26 5 -29 10 -11 18 -47 10 -71
-16 -28 -29 -30 -40 -9 -51 23 -13 24 -56 1 -61 -25 -5 -35 14 -29 55 7 41
-11 66 -41 57 -18 -6 -18 -3 7 21 15 16 30 40 34 54 5 25 40 71 52 71 3 0 24
-6 46 -14z m2472 -29 c7 -5 31 -10 52 -11 49 -3 71 -20 71 -56 0 -48 -7 -56
-46 -52 -25 3 -39 11 -46 28 -7 15 -21 24 -42 26 -36 4 -61 41 -45 69 9 18 30
17 56 -4z m906 -21 c23 -13 60 -29 82 -36 22 -7 43 -18 47 -24 11 -15 -1 -123
-17 -167 -10 -27 -11 -39 -3 -47 7 -7 11 -36 9 -66 -1 -30 2 -57 8 -61 6 -3
11 -23 11 -44 0 -30 6 -42 25 -55 13 -9 33 -16 45 -16 19 0 20 -6 20 -154 l0
-154 -63 -31 c-34 -17 -78 -35 -96 -41 l-33 -9 6 52 c32 254 31 261 -40 293
-30 14 -54 27 -54 30 0 3 5 25 11 49 10 39 16 46 53 58 l41 14 -48 8 c-30 5
-51 14 -57 26 -11 20 -14 382 -3 392 9 10 10 10 56 -17z m7557 4 c0 -5 -4 -10
-10 -10 -5 0 -10 5 -10 10 0 6 5 10 10 10 6 0 10 -4 10 -10z m455 -65 c48 -12
114 -47 120 -63 8 -21 -55 -80 -97 -93 -18 -5 -64 -9 -101 -9 -65 0 -71 2
-103 34 -60 60 -39 105 56 121 25 4 51 11 59 15 15 8 17 8 66 -5z m-8382 -32
c8 -5 10 -94 2 -115 -5 -12 -15 -12 -67 -2 -67 14 -78 24 -78 71 0 61 6 65 74
58 33 -4 64 -9 69 -12z m-1725 -9 c6 -2 12 -15 12 -29 0 -21 -3 -24 -17 -17
-9 6 -29 6 -45 1 -50 -14 -84 15 -57 47 10 13 63 12 107 -2z m666 -10 c9 -9
16 -32 16 -54 0 -46 -21 -70 -61 -70 -37 0 -68 15 -91 44 -24 29 -22 43 8 71
32 30 103 35 128 9z m6483 -21 c4 -12 -31 -34 -74 -47 -20 -6 -23 -4 -23 18 0
14 8 30 18 35 22 14 74 10 79 -6z m-7460 -52 c34 -22 52 -59 33 -71 -8 -5 -4
-9 10 -13 16 -4 21 -12 18 -30 -3 -28 17 -57 41 -57 9 0 24 -6 33 -14 16 -12
16 -15 -1 -47 -10 -19 -27 -35 -40 -37 -11 -2 -25 -11 -31 -21 -7 -15 -17 -17
-52 -11 -53 8 -88 36 -88 70 0 16 -10 35 -26 49 -14 12 -37 47 -50 77 -23 52
-23 56 -7 80 30 47 105 58 160 25z m-687 -28 c-1 -21 -46 -57 -60 -48 -20 12
18 64 48 65 6 0 12 -8 12 -17z m422 -22 c-1 -7 4 -24 13 -37 15 -23 14 -24 -7
-24 -30 0 -88 36 -88 54 0 16 23 25 60 23 15 -1 24 -7 22 -16z m8988 -17 c0
-14 -4 -23 -10 -19 -5 3 -10 15 -10 26 0 10 5 19 10 19 6 0 10 -12 10 -26z
m-453 -24 c22 0 54 -42 42 -56 -14 -17 -1 -62 21 -69 19 -6 35 -34 25 -43 -3
-3 -5 0 -5 6 0 8 -19 12 -53 12 -46 0 -55 3 -66 24 -8 13 -10 29 -6 36 4 7 -5
24 -21 42 -29 29 -29 30 -9 44 11 8 29 13 40 10 11 -3 25 -6 32 -6z m-6220
-17 c3 -8 2 -27 -3 -41 -9 -27 -18 -28 -130 -23 -12 1 -27 58 -19 71 2 4 36 7
75 8 55 0 73 -3 77 -15z m6400 -39 c15 -15 40 -31 56 -36 29 -11 36 -38 13
-57 -8 -7 -12 -21 -9 -31 5 -17 0 -20 -28 -20 l-34 1 22 18 c21 17 21 20 5 27
-9 5 -30 8 -47 9 -29 0 -30 2 -35 53 -3 29 -4 55 -1 58 11 10 32 2 58 -22z
m-6189 -46 c5 -7 13 -27 16 -44 13 -58 -45 -85 -91 -42 -25 23 -29 48 -13 79
12 22 71 27 88 7z m586 -70 c3 -13 11 -78 18 -145 14 -142 10 -151 -68 -173
-39 -11 -47 -11 -55 1 -5 8 -9 80 -9 161 0 141 1 148 22 162 12 9 37 16 54 16
24 0 33 -5 38 -22z m-3450 -66 c15 -18 15 -19 -9 -30 -33 -15 -50 -7 -51 23
-2 20 3 25 21 25 12 0 29 -8 39 -18z m-919 -49 c62 -19 153 -73 204 -122 22
-21 53 -69 73 -112 41 -89 50 -120 39 -138 -13 -20 -138 -51 -209 -51 -69 0
-188 35 -246 73 -38 25 -104 109 -112 144 -7 27 11 53 37 53 27 0 34 18 34 95
l0 70 35 6 c42 7 79 2 145 -18z m2669 17 c52 -20 16 -101 -52 -115 l-33 -7 4
-116 c7 -163 24 -444 37 -592 6 -69 22 -276 36 -460 39 -518 52 -647 88 -854
9 -49 16 -94 16 -100 0 -6 8 1 18 14 9 14 23 57 30 95 22 128 51 299 61 365
26 166 41 259 46 271 3 8 9 52 15 99 11 96 35 237 45 261 3 9 10 47 15 85 11
86 34 232 55 344 9 47 22 114 29 150 21 116 33 133 117 165 41 15 99 33 129
41 30 7 76 18 102 24 25 6 64 10 85 8 l38 -3 -3 -55 c-2 -30 -15 -98 -29 -150
-67 -254 -100 -382 -116 -465 -9 -44 -28 -136 -42 -204 -14 -68 -25 -141 -25
-162 l0 -39 68 71 c132 140 248 252 302 294 54 41 223 128 276 141 13 3 27 10
30 15 3 5 25 9 50 9 l44 0 0 -38 c0 -46 -4 -51 -105 -139 -44 -38 -111 -103
-150 -144 -38 -40 -108 -113 -154 -161 -46 -47 -88 -93 -92 -100 -16 -24 -9
-52 24 -103 57 -89 278 -376 316 -409 11 -11 21 -24 21 -31 0 -18 -51 -74 -89
-97 -20 -12 -74 -46 -120 -77 -65 -42 -94 -55 -124 -55 -45 -1 -43 -3 -156
161 -106 152 -194 264 -201 256 -4 -4 -14 -57 -24 -118 -34 -227 -39 -249 -63
-272 -14 -15 -34 -23 -55 -23 -31 0 -75 -8 -249 -46 -36 -8 -79 -14 -95 -13
-16 1 -56 -5 -89 -14 -71 -19 -161 -40 -265 -62 -41 -9 -97 -22 -125 -30 -27
-8 -72 -17 -100 -20 -27 -4 -65 -11 -83 -17 -63 -19 -62 -27 -62 388 0 210 -4
375 -9 378 -10 7 -112 -12 -286 -53 -194 -46 -217 -52 -272 -62 -28 -6 -58
-18 -66 -27 -8 -10 -28 -55 -45 -102 -46 -132 -140 -369 -173 -432 -17 -33 -9
-69 22 -108 31 -38 34 -67 7 -74 -104 -28 -285 -83 -418 -126 -47 -15 -152
-48 -235 -74 -82 -26 -161 -52 -175 -58 -108 -45 -116 -28 -47 104 71 136 217
390 292 509 13 20 39 67 59 105 20 38 45 83 55 99 20 34 123 212 154 265 10
19 38 66 61 103 62 103 160 273 201 352 21 39 59 106 85 150 86 146 190 326
190 330 0 2 14 28 32 57 49 82 78 146 78 170 0 16 -40 61 -132 149 -126 121
-132 128 -116 145 10 10 48 23 90 30 40 7 109 20 153 29 113 23 227 44 320 58
44 7 85 15 90 18 6 4 42 10 80 13 39 4 81 11 95 16 14 6 52 14 85 20 69 10
184 34 235 48 47 13 163 14 194 2z m5351 -141 c33 -15 74 -41 91 -57 l32 -29
-202 -6 c-110 -3 -223 -10 -251 -16 -27 -6 -86 -15 -130 -21 -44 -6 -118 -18
-165 -26 -89 -15 -256 -28 -230 -18 8 4 29 12 45 19 94 40 220 73 348 90 101
13 111 17 148 49 21 20 49 38 61 41 89 19 177 10 253 -26z m2149 -78 c6 -9
-37 -37 -146 -94 -97 -51 -153 -89 -243 -165 -29 -25 -125 -137 -125 -147 0
-4 -11 -22 -24 -39 -13 -17 -27 -46 -31 -64 -4 -18 -13 -45 -21 -60 -8 -15
-14 -32 -14 -39 0 -6 -18 -55 -40 -110 -22 -54 -49 -138 -61 -188 -11 -49 -33
-130 -49 -180 -15 -49 -36 -126 -45 -170 -10 -44 -28 -123 -41 -177 -31 -128
-46 -246 -36 -283 5 -21 19 -36 46 -49 34 -17 45 -17 124 -7 48 7 107 14 132
18 48 6 117 47 143 85 8 13 45 55 82 93 135 143 233 318 261 470 6 36 24 65
39 65 3 0 12 -15 20 -33 12 -29 11 -40 -6 -92 -32 -97 -127 -260 -207 -352
-41 -48 -81 -98 -89 -110 -9 -13 -24 -23 -34 -23 -11 0 -19 -4 -19 -10 0 -5 0
-13 0 -17 0 -20 173 -2 223 24 42 21 53 5 15 -23 -18 -13 -39 -29 -47 -35 -32
-28 -216 -93 -366 -131 -22 -5 -103 -10 -180 -11 -127 -1 -144 1 -182 21 -30
16 -43 30 -48 52 -14 63 8 171 80 395 16 48 52 174 66 230 14 53 50 174 60
203 5 13 9 33 9 45 1 12 9 40 20 62 11 22 19 48 20 57 0 9 4 19 9 22 5 3 11
20 14 38 4 34 32 138 62 238 31 103 40 149 29 160 -6 6 -29 13 -50 14 -21 2
-44 4 -51 5 -6 1 -9 10 -6 20 5 19 86 63 222 121 145 61 287 122 306 130 99
45 167 61 179 41z m-1022 -48 c-47 -46 -247 -194 -297 -221 -14 -7 -25 -17
-25 -23 0 -5 -5 -9 -11 -9 -5 0 -29 -18 -52 -39 -23 -21 -64 -57 -92 -78 -44
-35 -179 -172 -242 -247 -46 -54 -213 -300 -213 -314 0 -5 -7 -16 -16 -23 -18
-15 -75 -102 -109 -166 -12 -22 -27 -47 -34 -55 -17 -20 -68 -100 -140 -218
-35 -58 -72 -113 -83 -123 -10 -10 -18 -26 -18 -36 0 -10 -7 -24 -15 -31 -8
-7 -15 -19 -15 -26 0 -8 -4 -14 -10 -14 -17 0 -11 30 12 69 12 20 25 38 29 41
3 3 10 16 14 30 4 14 19 42 31 62 13 21 24 41 24 46 0 26 169 330 260 467 60
91 91 135 200 289 93 132 270 324 415 452 162 143 287 209 403 213 l33 1 -49
-47z m-3952 -86 c0 -19 -8 -63 -19 -98 -10 -35 -28 -113 -41 -174 -12 -60 -28
-137 -35 -170 -7 -33 -18 -82 -24 -110 -6 -27 -17 -81 -25 -119 -8 -38 -12
-75 -8 -82 5 -8 29 4 81 42 82 59 141 89 216 112 78 23 177 36 217 28 46 -8
97 -56 127 -120 22 -44 23 -57 18 -143 -7 -97 -16 -134 -75 -287 -65 -172
-110 -244 -231 -369 -139 -144 -233 -204 -421 -269 -83 -29 -138 -41 -197 -45
-74 -5 -87 -3 -136 20 -71 35 -116 97 -124 171 -5 49 0 92 52 426 24 148 45
272 55 310 5 19 12 58 15 85 4 28 13 85 21 129 8 43 14 99 14 125 0 25 5 62
11 81 6 19 11 98 10 176 -1 202 -6 191 123 236 60 20 134 41 165 48 31 6 72
15 91 19 19 5 54 9 78 10 41 1 42 0 42 -32z m2762 -40 c9 -7 14 -18 10 -23
-15 -22 -58 -44 -88 -44 -22 0 -41 -10 -66 -34 -34 -33 -35 -37 -42 -133 -13
-205 -32 -310 -52 -290 -9 9 -34 129 -46 223 -7 56 -15 84 -27 91 -11 7 -46 8
-101 2 -47 -4 -120 -8 -162 -8 -82 -1 -228 -28 -228 -43 0 -4 5 -8 11 -8 6 0
9 -10 7 -22 -2 -18 -11 -24 -43 -29 -22 -3 -53 -11 -68 -17 -16 -7 -26 -8 -23
-3 3 5 -1 12 -9 15 -10 4 -14 13 -10 28 10 43 -6 52 -76 39 -51 -8 -77 -8
-128 4 -35 9 -70 19 -77 23 -27 15 8 41 71 53 33 5 74 14 90 19 192 58 563
129 860 163 75 9 181 6 197 -6z m87 -57 c-7 -5 -21 -4 -31 1 -14 8 -16 14 -8
29 10 19 11 19 31 -1 17 -17 18 -23 8 -29z m8 -52 c-3 -8 -6 -5 -6 6 -1 11 2
17 5 13 3 -3 4 -12 1 -19z m-7008 -37 c16 -16 17 -19 2 -28 -25 -16 -61 1 -54
26 7 26 27 27 52 2z m-519 -88 c86 -24 101 -59 50 -116 -73 -83 -212 -71 -253
22 -49 111 22 144 203 94z m4003 -15 c59 -34 87 -78 87 -139 0 -80 -65 -171
-146 -205 -50 -21 -199 -18 -249 5 -66 31 -88 62 -87 123 1 29 9 69 18 88 19
44 86 97 150 120 59 21 194 25 227 8z m7119 -71 c42 -26 57 -42 64 -74 1 -8
-16 -5 -49 8 -46 18 -67 20 -172 15 -122 -5 -238 -23 -288 -44 -16 -7 -35 -12
-43 -12 -19 0 -232 -109 -275 -141 -34 -25 -146 -135 -214 -208 -59 -64 -58
-27 1 62 148 222 419 388 684 421 19 2 82 3 140 2 95 -1 109 -4 152 -29z
m-2364 6 c3 -10 -18 -13 -80 -13 -57 -1 -89 -5 -102 -15 -23 -17 -66 -21 -50
-5 6 6 21 13 34 15 13 2 26 9 29 14 13 21 162 24 169 4z m-1901 -223 c3 -80 0
-209 -6 -288 -8 -110 -7 -215 4 -464 9 -177 20 -360 25 -407 5 -47 10 -110 10
-138 0 -47 2 -53 21 -53 31 0 59 -19 59 -39 0 -11 6 -21 13 -24 19 -7 98 1
111 12 15 12 57 16 79 6 13 -6 29 4 66 41 67 67 111 107 144 127 27 17 27 17
27 -8 0 -33 -79 -185 -126 -242 -50 -60 -128 -121 -254 -197 -155 -94 -187
-108 -209 -97 -17 10 -19 32 -26 307 -4 163 -4 597 0 965 7 602 9 670 24 679
25 14 32 -19 38 -180z m1647 152 c-5 -18 -54 -47 -54 -31 0 13 33 47 47 48 6
1 9 -7 7 -17z m-68 -59 c-10 -10 -19 5 -10 18 6 11 8 11 12 0 2 -7 1 -15 -2
-18z m-8798 -48 c1 -1 0 -10 -4 -19 -4 -11 -19 -16 -50 -16 -40 0 -44 2 -44
25 0 35 27 47 65 28 16 -9 31 -17 33 -18z m8772 27 c0 -5 -11 -22 -25 -38 -24
-28 -25 -28 -25 -6 0 13 6 22 15 22 8 0 15 7 15 15 0 8 5 15 10 15 6 0 10 -4
10 -8z m1484 -63 c55 -29 66 -43 65 -81 -1 -18 -3 -25 -6 -15 -2 9 -13 17 -23
17 -10 0 -22 5 -25 10 -9 14 -134 12 -235 -4 -87 -14 -136 -28 -180 -50 -34
-17 -139 -41 -147 -33 -10 11 39 52 87 72 25 10 52 24 60 30 17 13 75 37 140
59 25 8 84 15 135 15 73 1 98 -3 129 -20z m-3590 -33 c27 -17 28 -20 22 -75
-4 -31 -16 -92 -27 -136 -11 -44 -26 -105 -34 -135 -8 -30 -21 -86 -29 -125
-65 -292 -70 -328 -57 -354 20 -36 59 -26 135 34 71 55 86 59 86 24 0 -92
-172 -236 -359 -300 -55 -19 -214 -27 -237 -11 -21 14 -34 51 -34 96 0 25 -4
47 -8 50 -5 3 -33 -15 -63 -40 -138 -114 -269 -174 -380 -174 -75 0 -157 26
-198 63 -63 58 -87 175 -57 283 7 27 19 74 26 104 23 101 128 335 190 426 44
63 145 159 208 196 132 79 232 96 542 94 221 -1 249 -3 274 -20z m-2325 -95
c10 -6 12 -20 8 -47 -36 -234 -59 -366 -93 -534 -9 -41 -18 -123 -21 -181 -6
-120 -4 -124 62 -124 62 0 56 -24 -20 -87 -36 -30 -78 -61 -93 -69 -15 -7 -43
-24 -62 -36 -39 -25 -174 -73 -205 -73 -12 0 -39 18 -60 41 l-40 40 1 122 c1
83 8 154 22 222 34 159 70 383 77 475 9 114 20 171 36 181 8 5 41 9 74 9 55 1
84 8 200 54 45 17 93 20 114 7z m4700 -70 c16 -11 8 -52 -15 -75 -8 -9 -32
-16 -52 -16 -20 0 -55 -7 -77 -15 -22 -8 -55 -14 -73 -15 -18 0 -40 -4 -50 -9
-9 -5 -37 -15 -62 -21 -25 -7 -51 -17 -58 -23 -15 -12 -52 -85 -52 -102 0 -6
-13 -38 -28 -71 -16 -33 -38 -110 -51 -174 -12 -63 -26 -131 -31 -151 -6 -20
-10 -70 -10 -111 0 -107 -4 -106 235 -82 42 4 73 12 78 20 9 16 37 19 37 4 0
-5 -4 -10 -8 -10 -5 0 -22 -12 -38 -26 -42 -38 -162 -92 -220 -99 -71 -9 -124
11 -147 55 -15 29 -17 50 -13 115 3 44 11 96 17 115 6 19 17 60 24 90 8 30 21
82 30 115 9 33 20 83 25 110 5 28 19 82 30 120 11 39 25 90 30 114 12 50 40
77 90 86 19 3 46 10 61 16 34 13 225 47 274 48 22 0 46 -3 54 -8z m1398 -143
c-3 -8 -6 -5 -6 6 -1 11 2 17 5 13 3 -3 4 -12 1 -19z m1186 -117 c-5 -21 -88
-110 -148 -158 -146 -119 -441 -207 -565 -170 l-45 13 60 7 c64 8 250 58 300
81 77 36 108 53 157 88 29 21 83 56 119 78 37 23 75 50 84 60 23 26 45 26 38
1z m-1246 -38 c-3 -10 -5 -4 -5 12 0 17 2 24 5 18 2 -7 2 -21 0 -30z m-18
-164 c1 -54 7 -91 22 -125 36 -82 130 -154 199 -154 16 0 68 -9 116 -21 48
-11 96 -18 108 -15 12 3 28 1 36 -4 11 -7 1 -10 -33 -10 -30 0 -54 -6 -63 -15
-34 -33 -208 -14 -301 33 -101 52 -152 190 -118 320 8 33 15 73 16 88 l1 29 8
-25 c4 -14 8 -59 9 -101z m-2772 -341 c-3 -8 -6 -5 -6 6 -1 11 2 17 5 13 3 -3
4 -12 1 -19z m3710 -303 c0 -8 -4 -15 -9 -15 -4 0 -8 5 -8 10 0 6 -7 10 -15
10 -8 0 -15 -5 -15 -11 0 -5 5 -7 10 -4 6 3 10 1 10 -4 0 -14 -17 -14 -25 -1
-10 16 4 30 29 30 13 0 23 -6 23 -15z m-4907 -89 l44 -13 -64 -11 c-36 -6
-119 -16 -185 -22 -66 -7 -145 -16 -175 -22 -124 -21 -872 -79 -1200 -93 -226
-9 -411 -22 -525 -35 -55 -6 -246 -26 -425 -46 -353 -37 -495 -57 -513 -72 -7
-5 -26 -13 -44 -16 -17 -4 -34 -13 -36 -20 -3 -7 -20 -17 -39 -21 l-33 -9 42
-3 c30 -3 46 -10 57 -29 16 -24 16 -24 -14 -24 -18 0 -38 -6 -46 -14 -8 -8
-46 -17 -91 -21 -141 -13 -148 -12 -148 9 0 14 14 23 53 36 29 10 55 20 58 22
2 3 -35 8 -83 11 -50 3 -118 15 -158 28 -64 22 -67 24 -40 30 17 3 44 14 60
23 17 9 43 16 58 16 26 0 80 9 262 41 102 19 184 30 335 44 80 8 195 21 255
29 319 42 441 56 545 66 225 20 310 29 367 39 32 6 117 15 188 20 72 6 182 15
245 20 411 36 631 47 950 49 188 1 267 -2 300 -12z m-571 -1116 c18 -17 37
-30 41 -30 10 0 165 -156 205 -206 17 -21 28 -43 26 -48 -9 -30 -7 -58 5 -63
8 -3 14 -11 14 -19 0 -8 6 -14 13 -14 8 -1 7 -5 -4 -13 -8 -7 -24 -24 -33 -39
-10 -16 -27 -28 -38 -28 -22 0 -94 35 -103 50 -3 5 -13 10 -22 10 -8 0 -35 14
-60 30 -24 17 -46 30 -49 30 -5 0 -34 25 -85 73 -11 9 -23 17 -27 17 -5 0 -17
9 -26 19 -17 19 -17 20 16 26 20 4 35 13 35 21 0 8 -4 14 -9 14 -4 0 -8 7 -8
15 0 8 -4 15 -10 15 -11 0 -34 40 -26 47 2 3 20 -7 39 -21 41 -31 72 -33 88
-5 9 18 6 26 -25 58 -70 72 -32 127 43 61z"/>
<path d="M9161 12884 c0 -11 3 -14 6 -6 3 7 2 16 -1 19 -3 4 -6 -2 -5 -13z"/>
<path d="M9186 12828 c6 -36 90 -215 111 -236 7 -7 13 -20 13 -28 0 -8 5 -14
10 -14 18 0 56 -42 81 -90 13 -25 49 -74 79 -110 31 -36 67 -81 80 -100 14
-19 40 -52 60 -73 19 -22 44 -50 55 -65 11 -14 43 -48 70 -76 l50 -51 3 28 c2
18 -10 51 -35 95 -21 37 -40 71 -42 77 -4 9 -21 34 -130 190 -80 115 -175 235
-259 325 -34 37 -78 88 -97 114 -42 54 -57 58 -49 14z"/>
<path d="M9730 11925 c0 -8 3 -15 8 -15 4 0 18 -17 32 -38 14 -20 28 -41 33
-47 4 -5 23 -34 43 -63 45 -68 72 -99 108 -124 l28 -21 -7 24 c-4 13 -15 36
-26 51 -10 15 -19 35 -19 45 0 34 -45 96 -82 116 -21 10 -48 31 -61 46 -28 33
-57 46 -57 26z"/>
<path d="M10062 11667 c90 -245 83 -233 184 -304 202 -141 289 -187 462 -243
126 -41 142 -34 81 36 -70 79 -183 186 -248 234 -34 25 -98 73 -143 108 -44
35 -90 68 -102 74 -12 6 -64 43 -116 82 -52 39 -107 77 -121 83 l-27 12 30
-82z"/>
<path d="M10225 13180 c-16 -7 -17 -9 -3 -9 9 -1 20 4 23 9 7 11 7 11 -20 0z"/>
<path d="M10208 13113 c7 -3 16 -2 19 1 4 3 -2 6 -13 5 -11 0 -14 -3 -6 -6z"/>
<path d="M6808 12218 c9 -9 15 -9 24 0 9 9 7 12 -12 12 -19 0 -21 -3 -12 -12z"/>
<path d="M7355 11960 c-85 -23 -90 -26 -90 -51 0 -21 4 -24 35 -23 57 1 110
14 110 26 0 6 7 20 17 30 14 16 14 18 0 18 -8 0 -21 2 -29 4 -7 2 -26 0 -43
-4z"/>
<path d="M7430 11810 c0 -5 14 -10 31 -10 17 0 28 4 24 10 -3 6 -17 10 -31 10
-13 0 -24 -4 -24 -10z"/>
<path d="M11586 12342 c-4 -7 -21 -12 -37 -12 -19 0 -39 -9 -55 -25 -14 -14
-32 -25 -41 -25 -30 0 -73 -51 -72 -84 0 -17 3 -25 6 -18 6 16 45 15 69 -3 29
-22 49 -18 63 11 7 17 17 24 27 20 25 -10 84 20 84 43 0 11 4 22 10 26 5 3 2
13 -8 24 -9 10 -22 26 -28 36 -7 13 -13 15 -18 7z"/>
<path d="M3691 10881 c-11 -7 -9 -10 8 -16 26 -8 49 4 30 16 -17 11 -21 11
-38 0z"/>
<path d="M5917 11577 c-3 -9 -2 -19 4 -23 15 -9 18 -2 9 20 -6 17 -7 18 -13 3z"/>
<path d="M5970 11570 c0 -5 4 -10 9 -10 6 0 13 5 16 10 3 6 -1 10 -9 10 -9 0
-16 -4 -16 -10z"/>
<path d="M7455 10400 c-15 -7 -9 -9 25 -9 33 -1 41 2 30 9 -18 12 -28 12 -55
0z"/>
<path d="M7398 10363 c7 -3 16 -2 19 1 4 3 -2 6 -13 5 -11 0 -14 -3 -6 -6z"/>
<path d="M2636 9681 c-3 -5 1 -11 9 -15 8 -3 15 -1 15 4 0 13 -18 22 -24 11z"/>
<path d="M2880 9580 c0 -5 5 -10 10 -10 6 0 10 5 10 10 0 6 -4 10 -10 10 -5 0
-10 -4 -10 -10z"/>
<path d="M10808 9253 c7 -3 16 -2 19 1 4 3 -2 6 -13 5 -11 0 -14 -3 -6 -6z"/>
<path d="M10805 9190 c4 -6 11 -8 16 -5 14 9 11 15 -7 15 -8 0 -12 -5 -9 -10z"/>
<path d="M2748 8833 c6 -2 18 -2 25 0 6 3 1 5 -13 5 -14 0 -19 -2 -12 -5z"/>
<path d="M2560 8656 c0 -2 9 -6 20 -9 11 -3 20 -1 20 4 0 5 -9 9 -20 9 -11 0
-20 -2 -20 -4z"/>
<path d="M6427 7516 c-13 -33 39 -145 80 -171 22 -15 23 -14 23 12 0 35 -19
89 -45 128 -30 46 -49 56 -58 31z"/>
<path d="M12222 8100 c0 -14 2 -19 5 -12 2 6 2 18 0 25 -3 6 -5 1 -5 -13z"/>
<path d="M12027 8034 c-3 -4 3 -14 15 -24 14 -11 21 -27 20 -49 -1 -42 -16
-59 -48 -55 -19 2 -23 -1 -16 -8 7 -7 7 -19 2 -33 -11 -30 -5 -35 42 -35 27 0
41 -6 50 -19 10 -16 15 -18 26 -8 11 9 18 7 33 -12 l19 -23 9 25 c6 14 19 31
31 37 15 8 19 17 14 35 -5 20 -1 25 20 31 15 3 45 4 66 0 25 -4 40 -2 40 4 0
5 -9 10 -20 10 -12 0 -25 10 -31 23 -6 13 -25 29 -43 35 -18 7 -38 24 -44 37
-10 21 -15 24 -30 16 -10 -5 -24 -6 -32 -1 -8 5 -21 5 -30 0 -9 -5 -23 -3 -35
6 -20 15 -47 18 -58 8z"/>
<path d="M11580 7375 c-10 -13 -9 -15 9 -15 11 0 21 4 21 9 0 18 -18 21 -30 6z"/>
<path d="M12150 7016 c0 -17 7 -25 25 -28 16 -4 25 -1 25 8 0 7 3 19 6 28 5
13 -1 16 -25 16 -26 0 -31 -4 -31 -24z"/>
<path d="M11244 6970 c-6 -6 -21 -12 -33 -13 -28 -2 -21 -21 9 -25 14 -2 29 3
36 12 10 15 12 15 18 1 9 -25 38 -19 34 8 -3 25 -45 36 -64 17z"/>
<path d="M1890 7960 c0 -5 4 -10 9 -10 6 0 13 5 16 10 3 6 -1 10 -9 10 -9 0
-16 -4 -16 -10z"/>
<path d="M1965 7760 c-3 -6 4 -10 17 -10 13 0 29 -5 36 -12 9 -9 12 -8 12 4 0
9 -10 18 -22 22 -31 8 -36 8 -43 -4z"/>
<path d="M2088 7693 c7 -3 16 -2 19 1 4 3 -2 6 -13 5 -11 0 -14 -3 -6 -6z"/>
<path d="M13522 7497 c-14 -16 -6 -27 20 -27 13 0 18 6 16 17 -4 22 -22 27
-36 10z"/>
<path d="M5380 6514 c0 -14 4 -23 10 -19 6 3 10 15 10 26 0 10 -4 19 -10 19
-5 0 -10 -12 -10 -26z"/>
<path d="M3386 5887 c-10 -23 -65 -136 -121 -252 -146 -299 -233 -496 -237
-535 -4 -30 26 -38 82 -21 19 6 100 22 179 35 79 14 150 31 157 38 11 10 11
64 4 273 -10 269 -19 498 -20 503 0 1 -6 2 -12 2 -7 0 -21 -20 -32 -43z"/>
<path d="M6550 5232 c-100 -50 -149 -85 -161 -117 -6 -16 -24 -93 -40 -170
-59 -276 -59 -284 -22 -303 49 -27 164 62 216 166 13 26 36 68 50 93 69 118
104 283 72 332 -22 34 -46 34 -115 -1z"/>
<path d="M7648 5280 c-57 -17 -106 -68 -151 -158 -51 -103 -74 -163 -93 -240
-21 -90 -18 -119 15 -153 49 -49 107 -37 188 39 55 52 84 121 139 342 17 68
18 152 2 168 -14 14 -59 14 -100 2z"/>
</g>
</svg>
